<svg width="265" height="166" viewBox="0 0 265 166" fill="none" xmlns="http://www.w3.org/2000/svg">
<path d="M71.9108 136.168C82.8382 139.805 92.449 139.906 104.295 139.906C103.089 143.517 101.659 142.047 102.704 145.699C103.414 148.181 105.98 149.348 105.98 152.519C105.98 154.507 109.223 168.517 110.94 162.516C113.252 154.439 127.882 145.552 135.556 143.363C161.749 135.892 189.991 134.55 218.071 133.216L218.856 133.179C255.641 131.43 262.659 103.56 262.659 71.8872C262.659 60.4914 265.596 40.251 254.235 33.58C244.107 27.6327 236.858 14.4905 223.91 13.7724C217.509 13.4175 211.044 8.72711 204.536 8.72711C197.37 8.72711 189.659 5.36356 181.886 5.36356C170.229 5.36356 159.937 2.2752 148.098 3.58835C142.59 4.19929 136.798 2 131.157 2C127.213 2 123.94 3.68178 120.3 3.68178C107.004 3.68178 89.3635 1.10163 77.3394 7.41906C62.2683 15.3374 47.4184 22.092 31.4775 27.6004C23.6827 30.2939 20.3994 35.5589 15.7534 41.5218C11.5801 46.8781 6.47373 49.1514 4.80273 56.6578C1.51042 71.4472 0.0305921 82.3077 6.58104 97.0204C9.91226 104.503 21.0621 107.45 25.4874 114.679C29.5741 121.355 38.417 126.739 45.3297 130.189C53.3613 134.198 63.2739 133.295 71.9108 136.168Z" fill="white" stroke="black" stroke-width="3" stroke-linecap="round"/>
<path d="M60.3198 63.2659V66.0027H61.3246V66.6212H68.5035V66.0178C68.6139 66.0135 68.706 66.0092 68.7969 66.007C68.8814 66.0049 68.9659 66.007 69.0795 66.007V63.8122H72.342V65.9995H72.9083V66.618H78.2269V65.645H78.8073V63.4319H79.9431V62.5548C80.151 62.4934 81.8727 62.4794 82.2051 62.5311V65.2517H81.0866V66.1665H80.5278V66.6309C80.7466 66.633 80.9761 66.6352 81.2067 66.6363C81.4406 66.6363 81.6745 66.6363 81.9084 66.6363C82.1423 66.6363 82.374 66.6363 82.6003 66.6363C82.6577 66.8378 82.6772 68.9248 82.6274 69.3871C82.3415 69.3892 82.0502 69.3925 81.759 69.3946C81.4558 69.3957 81.1526 69.3946 80.8494 69.3946H79.954V70.2911C80.1748 70.3202 80.4055 70.3018 80.635 70.3051C80.8689 70.3083 81.1028 70.3051 81.3367 70.3051C81.5706 70.3051 81.8023 70.3051 82.0286 70.3051C82.087 70.5066 82.099 72.3792 82.0448 72.7154C81.9582 72.7154 81.8662 72.7154 81.7741 72.7154C81.1158 72.7154 80.4575 72.7326 79.7991 72.7089C79.4602 72.6971 79.1462 72.8016 78.7954 72.8285V75.0029H77.9313V77.2139H77.3672V79.4302C76.8788 79.4399 76.4154 79.4302 75.9206 79.4367V81.625H73.6673V79.8149H72.6701V75.4091C72.4687 75.3962 72.2933 75.3854 72.0962 75.3735V73.1959C71.9002 73.1873 71.7248 73.1798 71.5321 73.1712C71.5234 73.0236 71.5158 72.8899 71.5072 72.7283C70.8391 72.7025 70.1786 72.724 69.5051 72.7154C69.4953 72.877 69.4878 73.0117 69.478 73.1658C69.3437 73.1755 69.2181 73.1841 69.0601 73.1949V75.3854H68.209V77.5802H67.6286V79.7966H66.1863V82H63.9363V79.8127H62.6446V77.7849H61.9267V75.575H61.0767V73.5526H59.9333V72.7165H58.2874V69.9732H59.0367V69.4H57V66.6395H58.0535V63.2659H60.3209H60.3198ZM76.8117 78.8861C76.8301 78.1286 76.8052 77.411 76.8269 76.6913C77.0315 76.6827 77.2015 76.6751 77.391 76.6665C77.391 76.2808 77.391 75.9209 77.391 75.5599C77.391 75.2022 77.3943 74.8445 77.3964 74.4609H78.2497V72.2715C78.3958 72.2618 78.542 72.2941 78.6308 72.2381C78.7553 72.1583 78.8744 72.168 79 72.168C79.745 72.1659 80.4899 72.167 81.2349 72.167C81.3269 72.167 81.4179 72.167 81.5164 72.167V70.8503H79.4017V68.8473H82.086V67.1804H79.9724V65.6396H80.5322V64.7098H81.6539V63.0698H80.5018V63.9738H79.3725C79.3595 64.7194 79.3768 65.437 79.3617 66.16C79.1581 66.1687 78.9881 66.1762 78.7856 66.1848V67.1707H72.3669V66.5673C72.1612 66.5555 71.9847 66.5458 71.7887 66.535V64.3617H69.6296C69.6296 64.6182 69.6296 64.8574 69.6296 65.0976C69.6296 65.3379 69.635 65.5804 69.6285 65.8206C69.6209 66.0566 69.661 66.2969 69.5971 66.5404C69.4163 66.549 69.2474 66.5576 69.0731 66.5662C69.0611 66.785 69.0514 66.9778 69.0406 67.1632C68.4873 67.2246 60.9706 67.1987 60.7692 67.1308V66.5468H59.786C59.7708 65.6084 59.7936 64.7001 59.773 63.7842C59.3594 63.7874 58.9826 63.7745 58.5949 63.7917C58.5949 64.1021 58.5949 64.3768 58.5949 64.6526V65.5049C58.5949 65.7808 58.596 66.0555 58.5949 66.3314C58.5939 66.6115 58.6014 66.8916 58.5884 67.1976H57.5566C57.5111 67.6868 57.5284 68.6576 57.588 68.857H59.6019V69.8773H60.4465V70.5033H58.8342V72.168H60.4692V72.9934H61.6202V75.0341H62.4789V77.2365H63.1849C63.1849 77.5964 63.1849 77.9218 63.1849 78.2482C63.1849 78.5801 63.1892 78.913 63.1914 79.2675H64.4701V81.4397C64.8285 81.4882 65.4501 81.4753 65.6525 81.4139V79.2611H67.071V77.0479H67.6611V74.8402H68.5133V72.6464C68.6659 72.6357 68.7904 72.626 68.9258 72.6163C68.9345 72.46 68.942 72.3189 68.9496 72.1853H72.042C72.0518 72.3383 72.0605 72.473 72.0713 72.6324H72.6235V74.8305C72.8271 74.8391 73.0036 74.8477 73.2017 74.8563V79.2632H74.2087V81.0777H75.3814V78.8861H76.8128H76.8117Z" fill="#EE5959"/>
<path d="M76.8106 78.885H75.3792V81.0766H74.2065V79.2621H73.1996V74.8553C73.0014 74.8467 72.8249 74.8391 72.6213 74.8294V72.6314H72.0691C72.0583 72.4719 72.0496 72.3372 72.0399 72.1842H68.9475C68.9399 72.3178 68.9323 72.459 68.9236 72.6152C68.7883 72.6249 68.6638 72.6346 68.5111 72.6454V74.8391H67.6589V77.0469H67.0688V79.26H65.6504V81.4128C65.4479 81.4742 64.8264 81.4871 64.468 81.4386V79.2665H63.1892C63.187 78.9109 63.1838 78.579 63.1827 78.2472C63.1827 77.9207 63.1827 77.5953 63.1827 77.2354H62.4767V75.0331H61.6181V72.9923H60.4671V72.167H58.8321V70.5023H60.4443V69.8763H59.5998V68.8559H57.5858C57.5252 68.6566 57.5089 67.6858 57.5544 67.1966H58.5863C58.6004 66.8906 58.5917 66.6104 58.5928 66.3303C58.5939 66.0545 58.5928 65.7797 58.5928 65.5039V64.6516C58.5928 64.3768 58.5928 64.1021 58.5928 63.7907C58.9815 63.7734 59.3572 63.7864 59.7709 63.7831C59.7925 64.699 59.7687 65.6062 59.7838 66.5458H60.767V67.1298C60.9684 67.1977 68.4851 67.2235 69.0384 67.1621C69.0482 66.9757 69.059 66.7839 69.0709 66.5652C69.2463 66.5566 69.4141 66.5479 69.595 66.5393C69.6588 66.2958 69.6188 66.0555 69.6264 65.8196C69.6339 65.5782 69.6274 65.3379 69.6274 65.0966C69.6274 64.8552 69.6274 64.616 69.6274 64.3607H71.7865V66.5339C71.9825 66.5447 72.159 66.5544 72.3647 66.5663V67.1696H78.7835V66.1838C78.9849 66.1751 79.1549 66.1676 79.3595 66.159C79.3747 65.436 79.3563 64.7184 79.3703 63.9728H80.4997V63.0698H81.6518V64.7065H80.53V65.6364H79.9702V67.1772H82.0838V68.844H79.3996V70.8471H81.5143V72.1637C81.4168 72.1637 81.3248 72.1637 81.2327 72.1637C80.4878 72.1637 79.7428 72.1627 78.9979 72.1648C78.8733 72.1648 78.7542 72.1551 78.6286 72.2349C78.5398 72.2909 78.3948 72.2596 78.2475 72.2683V74.4577H77.3943C77.3921 74.8413 77.3899 75.199 77.3888 75.5567C77.3888 75.9177 77.3888 76.2775 77.3888 76.6633C77.2004 76.6719 77.0304 76.6794 76.8247 76.6881C76.8031 77.4078 76.829 78.1254 76.8096 78.8829L76.8106 78.885ZM65.9135 78.6426V77.5878H66.4776V75.38H67.3319V73.5235C67.4857 73.5117 67.6102 73.502 67.738 73.4912V72.1961C67.4348 72.1422 61.8411 72.154 61.6441 72.2101V73.3597H62.7918V75.5696H63.6418V77.5974H64.3413C64.3738 77.9638 64.3305 78.3064 64.3684 78.6415H65.9135V78.6426ZM60.7898 70.2038H61.6506V70.8395H68.4678V68.8796C68.1765 68.8257 60.9738 68.8387 60.7908 68.8914V70.2049L60.7898 70.2038ZM73.8048 73.5074V75.3746C73.9986 75.3843 74.1751 75.3919 74.3776 75.4016V77.9153C74.8075 77.9185 75.2103 77.9228 75.6347 77.9142V77.216H76.2151V74.9997H77.0662C77.0932 74.2497 77.0553 73.5321 77.0878 72.8167C77.2383 72.8059 77.3574 72.7973 77.483 72.7876V72.1831H73.2439V73.5074H73.8048ZM78.2204 70.8384C78.2183 70.1855 78.2269 69.5304 78.2139 68.8613H72.8152V70.8384H78.2204ZM71.61 70.8428V68.8624H69.6837C69.6274 69.2061 69.6426 70.6682 69.7032 70.8428H71.61Z" fill="#EE5959"/>
<path d="M65.9135 78.6426L64.3686 78.6426C64.3296 78.3064 64.3729 77.9649 64.3415 77.5985H63.642V75.5707H62.792V73.3608H61.6443V72.2112C61.8414 72.1551 67.435 72.1433 67.7382 72.1971V73.4923C67.6115 73.502 67.4859 73.5127 67.3322 73.5246V75.3811H66.4778V77.5888H65.9137V78.6437L65.9135 78.6426ZM67.212 72.7154C67.0658 72.7154 66.9543 72.7154 66.8438 72.7154C65.3041 72.7208 63.7655 72.7251 62.2257 72.7305C62.2182 72.7305 62.2073 72.737 62.2041 72.7434C62.2008 72.7499 62.2041 72.7596 62.2073 72.8059C62.3817 72.8318 62.5668 72.8145 62.7498 72.8188C62.936 72.8232 63.1223 72.8253 63.328 72.8296V75.0287H64.1932V77.0663H64.8818C64.923 77.4272 64.8656 77.7623 64.9186 78.0942H65.3561V77.0458H65.9256V74.8359H66.794V72.9859C66.9413 72.9772 67.0604 72.9708 67.1925 72.9632C67.1979 72.8846 67.2033 72.8199 67.2109 72.7165L67.212 72.7154Z" fill="#EE5959"/>
<path d="M60.7898 70.2038L60.7899 68.8903C60.974 68.8375 68.1756 68.8257 68.4668 68.8785V70.8384H61.6496V70.2027H60.7888L60.7898 70.2038ZM62.1921 70.2867H67.9384C67.9384 70.0465 67.9384 69.8245 67.9384 69.6026C67.9384 69.5444 67.9309 69.4862 67.9265 69.4323C67.6309 69.3677 61.4114 69.3752 61.327 69.4506C61.3345 69.511 61.3443 69.5832 61.3562 69.6704H62.1921V70.2867Z" fill="#EE5959"/>
<path d="M73.2461 73.5084V72.1842H77.4852V72.7887C77.3596 72.7984 77.2405 72.807 77.09 72.8177C77.0575 73.5332 77.0954 74.2508 77.0683 75.0007H76.2173V77.2171H75.6369V77.9153C75.2113 77.9239 74.8096 77.9196 74.3798 77.9164V75.4026C74.1773 75.3929 74.0008 75.3843 73.807 75.3757V73.5084H73.2461ZM76.5085 72.7305H73.7723C73.7777 72.8167 73.7821 72.8867 73.7886 72.9804H74.3451V74.8456H74.9114V77.3668C74.9818 77.3636 75.0229 77.3615 75.0977 77.3582V76.6934C75.3088 76.6816 75.4853 76.6719 75.6824 76.6622V74.4717H76.5085V72.7305Z" fill="#EE5959"/>
<path d="M78.2204 70.8395H72.8152V68.8624H78.214C78.2269 69.5315 78.2183 70.1866 78.2204 70.8395ZM77.6552 69.4151C77.1323 69.3591 73.5461 69.3828 73.3609 69.442V70.2889H77.6552V69.4151Z" fill="#EE5959"/>
<path d="M71.61 70.8438H69.7032C69.6426 70.6682 69.6274 69.2071 69.6837 68.8634H71.61V70.8438ZM71.0697 69.4C70.7676 69.4021 70.4893 69.3687 70.2186 69.4194V70.2921H71.0697V69.4Z" fill="#EE5959"/>
<path d="M49 72.4865H55V70.9884H50.5V69.4903H49V67.9923H47.5V63.4981H44.5V67.9923H43V69.4903H41.5V70.9884H37V72.4865H43V70.9884H44.5V69.4903H47.5V70.9884H49V72.4865ZM47.5 73.9845H44.5V78.4787H35.5V79.9768H56.5V78.4787H47.5V73.9845Z" fill="black"/>
<path d="M85.792 67.9923H88.792V69.4903H100.792V67.9923H103.792V63.4981H100.792V62H88.792V63.4981H85.792V67.9923ZM90.292 63.4981H99.292V64.9961H100.792V66.4942H99.292V67.9923H90.292V66.4942H88.792V64.9961H90.292V63.4981ZM105.292 70.9884H84.292V72.4865H105.292V70.9884ZM85.792 79.9768H87.292V81.4749H103.792V79.9768H88.792V78.4787H103.792V73.9845H85.792V75.4826H100.792V76.9807H85.792V79.9768Z" fill="black"/>
<path d="M132.82 62H120.82V70.9884H122.32V72.4865H131.32V70.9884H132.82V62ZM138.82 62H135.82V72.4865H138.82V67.9923H143.32V66.4942H138.82V62ZM129.82 70.9884H123.82V63.4981H129.82V70.9884ZM122.32 79.9768H123.82V81.4749H138.82V79.9768H125.32V78.4787H138.82V73.9845H122.32V75.4826H135.82V76.9807H122.32V79.9768Z" fill="black"/>
<path d="M152.584 67.4929H144.584V73.4852H145.584V74.4839H151.584V73.4852H152.584V67.4929ZM156.584 67.4929H154.584V74.4839H156.584V71.4878H159.584V70.4891H156.584V67.4929ZM150.584 73.4852H146.584V68.4916H150.584V73.4852ZM147.584 75.4826H145.584V79.4775H146.584V80.4762H156.584V79.4775H147.584V75.4826Z" fill="black"/>
<path d="M181.024 62H178.024V63.4981H173.524V64.9961H185.524V63.4981H181.024V62ZM190.024 72.4865H191.524V81.4749H194.524V62H191.524V70.9884H190.024V62H187.024V81.4749H190.024V72.4865ZM182.524 78.4787H184.024V76.9807H185.524V69.4903H184.024V67.9923H182.524V66.4942H176.524V67.9923H175.024V69.4903H173.524V76.9807H175.024V78.4787H176.524V79.9768H182.524V78.4787ZM178.024 67.9923H181.024V69.4903H182.524V76.9807H181.024V78.4787H178.024V76.9807H176.524V69.4903H178.024V67.9923Z" fill="black"/>
<path d="M197.788 78.4787V79.9768H212.788V81.4749H215.788V72.4865H220.288V70.9884H215.788V62H212.788V78.4787H205.288V73.9845H208.288V72.4865H209.788V63.4981H206.788V67.9923H200.788V63.4981H197.788V72.4865H199.288V73.9845H202.288V78.4787H197.788ZM200.788 72.4865V69.4903H206.788V72.4865H200.788Z" fill="black"/>
<path d="M33 67.4495H31.0435V65.4955H28.9565V67.4495H27V69.5338H28.9565V71.4878H31.0435V69.5338H33V67.4495Z" fill="#F9D501"/>
<path d="M231 73.4418H229.043V71.4878H226.957V73.4418H225V75.526H226.957V77.48H229.043V75.526H231V73.4418Z" fill="#F9D501"/>
<path d="M116 72.4431H114.043V70.4891H111.957V72.4431H110V74.5273H111.957V76.4813H114.043V74.5273H116V72.4431Z" fill="#F9D501"/>
<path d="M169 68.4482H167.043V66.4942H164.957V68.4482H163V70.5325H164.957V72.4865H167.043V70.5325H169V68.4482Z" fill="#F9D501"/>
<path d="M70.75 97.5H74.25V96.625H71.625V95.75H70.75V94.875H69.875V92.25H68.125V94.875H67.25V95.75H66.375V96.625H63.75V97.5H67.25V96.625H68.125V95.75H69.875V96.625H70.75V97.5ZM69.875 98.375H68.125V101H62.875V101.875H75.125V101H69.875V98.375ZM79.5 96.625V98.375H81.25V96.625H83.875V97.5H86.5V98.375H88.25V91.375H86.5V95.75H82.125V94.875H83.875V92.25H82.125V91.375H78.625V92.25H76.875V94.875H78.625V95.75H76.875V96.625H79.5ZM81.25 93.125H82.125V94H81.25V94.875H79.5V94H78.625V93.125H79.5V92.25H81.25V93.125ZM77.75 101.875H78.625V102.75H88.25V101.875H79.5V98.375H77.75V101.875ZM91.75 94.875H93.5V95.75H100.5V94.875H102.25V92.25H100.5V91.375H93.5V92.25H91.75V94.875ZM94.375 92.25H99.625V93.125H100.5V94H99.625V94.875H94.375V94H93.5V93.125H94.375V92.25ZM103.125 96.625H90.875V97.5H103.125V96.625ZM91.75 101.875H92.625V102.75H102.25V101.875H93.5V101H102.25V98.375H91.75V99.25H100.5V100.125H91.75V101.875ZM112.75 94.875H113.625V95.75H123.25V94.875H114.5V92.25H123.25V91.375H112.75V94.875ZM124.125 96.625H111.875V97.5H124.125V96.625ZM112.75 101.875H113.625V102.75H123.25V101.875H114.5V101H123.25V98.375H112.75V99.25H121.5V100.125H112.75V101.875ZM132 101V100.125H132.875V97.5H135.5V102.75H137.25V91.375H135.5V96.625H132.875V94H132V93.125H131.125V92.25H127.625V93.125H126.75V94H125.875V100.125H126.75V101H127.625V101.875H131.125V101H132ZM128.5 100.125H127.625V94H128.5V93.125H130.25V94H131.125V100.125H130.25V101H128.5V100.125ZM140.75 97.5H141.625V98.375H151.25V97.5H142.5V93.125H151.25V92.25H140.75V97.5ZM152.125 101H139.875V101.875H152.125V101ZM153.875 96.625H154.75V97.5H160.875V96.625H155.625V94.875H160.875V91.375H153.875V92.25H159.125V94H153.875V96.625ZM165.25 91.375H163.5V97.5H165.25V91.375ZM155.625 102.75H164.375V101.875H165.25V98.375H163.5V100.125H156.5V98.375H154.75V101.875H155.625V102.75ZM163.5 101.875H156.5V101H163.5V101.875ZM179.25 91.375H177.5V102.75H179.25V91.375ZM168.75 101.875H174V101H174.875V100.125H173.125V101H169.625V92.25H167.875V101H168.75V101.875ZM192.375 91.375H190.625V102.75H192.375V97.5H195V96.625H192.375V91.375ZM187.125 101H188V100.125H186.25V101H183.625V93.125H188V92.25H181.875V101H182.75V101.875H187.125V101Z" fill="black"/>
</svg>
