<svg width="265" height="166" viewBox="0 0 265 166" fill="none" xmlns="http://www.w3.org/2000/svg">
<path d="M71.9108 136.168C82.8382 139.805 92.449 139.906 104.295 139.906C103.089 143.517 101.659 142.047 102.704 145.699C103.414 148.181 105.98 149.348 105.98 152.519C105.98 154.507 109.223 168.517 110.94 162.516C113.252 154.439 127.882 145.552 135.556 143.363C161.749 135.892 189.991 134.55 218.071 133.216L218.856 133.179C255.641 131.43 262.659 103.56 262.659 71.8872C262.659 60.4914 265.596 40.251 254.235 33.58C244.107 27.6327 236.858 14.4905 223.91 13.7724C217.509 13.4175 211.044 8.72711 204.536 8.72711C197.37 8.72711 189.659 5.36356 181.886 5.36356C170.229 5.36356 159.937 2.2752 148.098 3.58835C142.59 4.19929 136.798 2 131.157 2C127.213 2 123.94 3.68178 120.3 3.68178C107.004 3.68178 89.3635 1.10163 77.3394 7.41906C62.2683 15.3374 47.4184 22.092 31.4775 27.6004C23.6827 30.2939 20.3994 35.5589 15.7534 41.5218C11.5801 46.8781 6.47373 49.1514 4.80273 56.6578C1.51042 71.4472 0.030592 82.3077 6.58104 97.0204C9.91226 104.503 21.0621 107.45 25.4874 114.679C29.5741 121.355 38.417 126.739 45.3297 130.189C53.3613 134.198 63.2739 133.295 71.9108 136.168Z" fill="white" stroke="black" stroke-width="3" stroke-linecap="round"/>
<path d="M63.3198 63.2659V66.0027H64.3246V66.6212H71.5035V66.0178C71.6139 66.0135 71.706 66.0092 71.7969 66.007C71.8814 66.0049 71.9659 66.007 72.0795 66.007V63.8122H75.342V65.9995H75.9083V66.618H81.2269V65.645H81.8073V63.4319H82.9431V62.5548C83.151 62.4934 84.8727 62.4794 85.2051 62.5311V65.2517H84.0866V66.1665H83.5278V66.6309C83.7466 66.633 83.9761 66.6352 84.2067 66.6363C84.4406 66.6363 84.6745 66.6363 84.9084 66.6363C85.1423 66.6363 85.374 66.6363 85.6003 66.6363C85.6577 66.8378 85.6772 68.9248 85.6274 69.3871C85.3415 69.3892 85.0502 69.3925 84.759 69.3946C84.4558 69.3957 84.1526 69.3946 83.8494 69.3946H82.954V70.2911C83.1748 70.3202 83.4055 70.3018 83.635 70.3051C83.8689 70.3083 84.1028 70.3051 84.3367 70.3051C84.5706 70.3051 84.8023 70.3051 85.0286 70.3051C85.087 70.5066 85.099 72.3792 85.0448 72.7154C84.9582 72.7154 84.8662 72.7154 84.7741 72.7154C84.1158 72.7154 83.4575 72.7326 82.7991 72.7089C82.4602 72.6971 82.1462 72.8016 81.7954 72.8285V75.0029H80.9313V77.2139H80.3672V79.4302C79.8788 79.4399 79.4154 79.4302 78.9206 79.4367V81.625H76.6673V79.8149H75.6701V75.4091C75.4687 75.3962 75.2933 75.3854 75.0962 75.3735V73.1959C74.9002 73.1873 74.7248 73.1798 74.5321 73.1712C74.5234 73.0236 74.5158 72.8899 74.5072 72.7283C73.8391 72.7025 73.1786 72.724 72.5051 72.7154C72.4953 72.877 72.4878 73.0117 72.478 73.1658C72.3437 73.1755 72.2181 73.1841 72.0601 73.1949V75.3854H71.209V77.5802H70.6286V79.7966H69.1863V82H66.9363V79.8127H65.6446V77.7849H64.9267V75.575H64.0767V73.5526H62.9333V72.7165H61.2874V69.9732H62.0367V69.4H60V66.6395H61.0535V63.2659H63.3209H63.3198ZM79.8117 78.8861C79.8301 78.1286 79.8052 77.411 79.8269 76.6913C80.0315 76.6827 80.2015 76.6751 80.391 76.6665C80.391 76.2808 80.391 75.9209 80.391 75.5599C80.391 75.2022 80.3943 74.8445 80.3964 74.4609H81.2497V72.2715C81.3958 72.2618 81.542 72.2941 81.6308 72.2381C81.7553 72.1583 81.8744 72.168 82 72.168C82.745 72.1659 83.4899 72.167 84.2349 72.167C84.3269 72.167 84.4179 72.167 84.5164 72.167V70.8503H82.4017V68.8473H85.086V67.1804H82.9724V65.6396H83.5322V64.7098H84.6539V63.0698H83.5018V63.9738H82.3725C82.3595 64.7194 82.3768 65.437 82.3617 66.16C82.1581 66.1687 81.9881 66.1762 81.7856 66.1848V67.1707H75.3669V66.5673C75.1612 66.5555 74.9847 66.5458 74.7887 66.535V64.3617H72.6296C72.6296 64.6182 72.6296 64.8574 72.6296 65.0976C72.6296 65.3379 72.635 65.5804 72.6285 65.8206C72.6209 66.0566 72.661 66.2969 72.5971 66.5404C72.4163 66.549 72.2474 66.5576 72.0731 66.5662C72.0611 66.785 72.0514 66.9778 72.0406 67.1632C71.4873 67.2246 63.9706 67.1987 63.7692 67.1308V66.5468H62.786C62.7708 65.6084 62.7936 64.7001 62.773 63.7842C62.3594 63.7874 61.9826 63.7745 61.5949 63.7917C61.5949 64.1021 61.5949 64.3768 61.5949 64.6526V65.5049C61.5949 65.7808 61.596 66.0555 61.5949 66.3314C61.5939 66.6115 61.6014 66.8916 61.5884 67.1976H60.5566C60.5111 67.6868 60.5284 68.6576 60.588 68.857H62.6019V69.8773H63.4465V70.5033H61.8342V72.168H63.4692V72.9934H64.6202V75.0341H65.4789V77.2365H66.1849C66.1849 77.5964 66.1849 77.9218 66.1849 78.2482C66.1849 78.5801 66.1892 78.913 66.1914 79.2675H67.4701V81.4397C67.8285 81.4882 68.4501 81.4753 68.6525 81.4139V79.2611H70.071V77.0479H70.6611V74.8402H71.5133V72.6464C71.6659 72.6357 71.7904 72.626 71.9258 72.6163C71.9345 72.46 71.942 72.3189 71.9496 72.1853H75.042C75.0518 72.3383 75.0605 72.473 75.0713 72.6324H75.6235V74.8305C75.8271 74.8391 76.0036 74.8477 76.2017 74.8563V79.2632H77.2087V81.0777H78.3814V78.8861H79.8128H79.8117Z" fill="#EE5959"/>
<path d="M79.8106 78.885H78.3792V81.0766H77.2065V79.2621H76.1996V74.8553C76.0014 74.8467 75.8249 74.8391 75.6213 74.8294V72.6314H75.0691C75.0583 72.4719 75.0496 72.3372 75.0399 72.1842H71.9475C71.9399 72.3178 71.9323 72.459 71.9236 72.6152C71.7883 72.6249 71.6638 72.6346 71.5111 72.6454V74.8391H70.6589V77.0469H70.0688V79.26H68.6504V81.4128C68.4479 81.4742 67.8264 81.4871 67.468 81.4386V79.2665H66.1892C66.187 78.9109 66.1838 78.579 66.1827 78.2472C66.1827 77.9207 66.1827 77.5953 66.1827 77.2354H65.4767V75.0331H64.6181V72.9923H63.4671V72.167H61.8321V70.5023H63.4443V69.8763H62.5998V68.8559H60.5858C60.5252 68.6566 60.5089 67.6858 60.5544 67.1966H61.5863C61.6004 66.8906 61.5917 66.6104 61.5928 66.3303C61.5939 66.0545 61.5928 65.7797 61.5928 65.5039V64.6516C61.5928 64.3768 61.5928 64.1021 61.5928 63.7907C61.9815 63.7734 62.3572 63.7864 62.7709 63.7831C62.7925 64.699 62.7687 65.6062 62.7838 66.5458H63.767V67.1298C63.9684 67.1977 71.4851 67.2235 72.0384 67.1621C72.0482 66.9757 72.059 66.7839 72.0709 66.5652C72.2463 66.5566 72.4141 66.5479 72.595 66.5393C72.6588 66.2958 72.6188 66.0555 72.6264 65.8196C72.6339 65.5782 72.6274 65.3379 72.6274 65.0966C72.6274 64.8552 72.6274 64.616 72.6274 64.3607H74.7865V66.5339C74.9825 66.5447 75.159 66.5544 75.3647 66.5663V67.1696H81.7835V66.1838C81.9849 66.1751 82.1549 66.1676 82.3595 66.159C82.3747 65.436 82.3563 64.7184 82.3703 63.9728H83.4997V63.0698H84.6518V64.7065H83.53V65.6364H82.9702V67.1772H85.0838V68.844H82.3996V70.8471H84.5143V72.1637C84.4168 72.1637 84.3248 72.1637 84.2327 72.1637C83.4878 72.1637 82.7428 72.1627 81.9979 72.1648C81.8733 72.1648 81.7542 72.1551 81.6286 72.2349C81.5398 72.2909 81.3948 72.2596 81.2475 72.2683V74.4577H80.3943C80.3921 74.8413 80.3899 75.199 80.3888 75.5567C80.3888 75.9177 80.3888 76.2775 80.3888 76.6633C80.2004 76.6719 80.0304 76.6794 79.8247 76.6881C79.8031 77.4078 79.829 78.1254 79.8096 78.8829L79.8106 78.885ZM68.9135 78.6426V77.5878H69.4776V75.38H70.3319V73.5235C70.4857 73.5117 70.6102 73.502 70.738 73.4912V72.1961C70.4348 72.1422 64.8411 72.154 64.6441 72.2101V73.3597H65.7918V75.5696H66.6418V77.5974H67.3413C67.3738 77.9638 67.3305 78.3064 67.3684 78.6415H68.9135V78.6426ZM63.7898 70.2038H64.6506V70.8395H71.4678V68.8796C71.1765 68.8257 63.9738 68.8387 63.7908 68.8914V70.2049L63.7898 70.2038ZM76.8048 73.5074V75.3746C76.9986 75.3843 77.1751 75.3919 77.3776 75.4016V77.9153C77.8075 77.9185 78.2103 77.9228 78.6347 77.9142V77.216H79.2151V74.9997H80.0662C80.0932 74.2497 80.0553 73.5321 80.0878 72.8167C80.2383 72.8059 80.3574 72.7973 80.483 72.7876V72.1831H76.2439V73.5074H76.8048ZM81.2204 70.8384C81.2183 70.1855 81.2269 69.5304 81.2139 68.8613H75.8152V70.8384H81.2204ZM74.61 70.8428V68.8624H72.6837C72.6274 69.2061 72.6426 70.6682 72.7032 70.8428H74.61Z" fill="#EE5959"/>
<path d="M68.9135 78.6426L67.3686 78.6426C67.3296 78.3064 67.3729 77.9649 67.3415 77.5985H66.642V75.5707H65.792V73.3608H64.6443V72.2112C64.8414 72.1551 70.435 72.1433 70.7382 72.1971V73.4923C70.6115 73.502 70.4859 73.5127 70.3322 73.5246V75.3811H69.4778V77.5888H68.9137V78.6437L68.9135 78.6426ZM70.212 72.7154C70.0658 72.7154 69.9543 72.7154 69.8438 72.7154C68.3041 72.7208 66.7655 72.7251 65.2257 72.7305C65.2182 72.7305 65.2073 72.737 65.2041 72.7434C65.2008 72.7499 65.2041 72.7596 65.2073 72.8059C65.3817 72.8318 65.5668 72.8145 65.7498 72.8188C65.936 72.8232 66.1223 72.8253 66.328 72.8296V75.0287H67.1932V77.0663H67.8818C67.923 77.4272 67.8656 77.7623 67.9186 78.0942H68.3561V77.0458H68.9256V74.8359H69.794V72.9859C69.9413 72.9772 70.0604 72.9708 70.1925 72.9632C70.1979 72.8846 70.2033 72.8199 70.2109 72.7165L70.212 72.7154Z" fill="#EE5959"/>
<path d="M63.7898 70.2038L63.7899 68.8903C63.974 68.8375 71.1756 68.8257 71.4668 68.8785V70.8384H64.6496V70.2027H63.7888L63.7898 70.2038ZM65.1921 70.2867H70.9384C70.9384 70.0465 70.9384 69.8245 70.9384 69.6026C70.9384 69.5444 70.9309 69.4862 70.9265 69.4323C70.6309 69.3677 64.4114 69.3752 64.327 69.4506C64.3345 69.511 64.3443 69.5832 64.3562 69.6704H65.1921V70.2867Z" fill="#EE5959"/>
<path d="M76.2461 73.5084V72.1842H80.4852V72.7887C80.3596 72.7984 80.2405 72.807 80.09 72.8177C80.0575 73.5332 80.0954 74.2508 80.0683 75.0007H79.2173V77.2171H78.6369V77.9153C78.2113 77.9239 77.8096 77.9196 77.3798 77.9164V75.4026C77.1773 75.3929 77.0008 75.3843 76.807 75.3757V73.5084H76.2461ZM79.5085 72.7305H76.7723C76.7777 72.8167 76.7821 72.8867 76.7886 72.9804H77.3451V74.8456H77.9114V77.3668C77.9818 77.3636 78.0229 77.3615 78.0977 77.3582V76.6934C78.3088 76.6816 78.4853 76.6719 78.6824 76.6622V74.4717H79.5085V72.7305Z" fill="#EE5959"/>
<path d="M81.2204 70.8395H75.8152V68.8624H81.214C81.2269 69.5315 81.2183 70.1866 81.2204 70.8395ZM80.6552 69.4151C80.1323 69.3591 76.5461 69.3828 76.3609 69.442V70.2889H80.6552V69.4151Z" fill="#EE5959"/>
<path d="M74.61 70.8438H72.7032C72.6426 70.6682 72.6274 69.2071 72.6837 68.8634H74.61V70.8438ZM74.0697 69.4C73.7676 69.4021 73.4893 69.3687 73.2186 69.4194V70.2921H74.0697V69.4Z" fill="#EE5959"/>
<path d="M52 72.4865H58V70.9884H53.5V69.4903H52V67.9923H50.5V63.4981H47.5V67.9923H46V69.4903H44.5V70.9884H40V72.4865H46V70.9884H47.5V69.4903H50.5V70.9884H52V72.4865ZM50.5 73.9845H47.5V78.4787H38.5V79.9768H59.5V78.4787H50.5V73.9845Z" fill="black"/>
<path d="M88.792 67.9923H91.792V69.4903H103.792V67.9923H106.792V63.4981H103.792V62H91.792V63.4981H88.792V67.9923ZM93.292 63.4981H102.292V64.9961H103.792V66.4942H102.292V67.9923H93.292V66.4942H91.792V64.9961H93.292V63.4981ZM108.292 70.9884H87.292V72.4865H108.292V70.9884ZM88.792 79.9768H90.292V81.4749H106.792V79.9768H91.792V78.4787H106.792V73.9845H88.792V75.4826H103.792V76.9807H88.792V79.9768Z" fill="black"/>
<path d="M135.82 62H123.82V70.9884H125.32V72.4865H134.32V70.9884H135.82V62ZM141.82 62H138.82V72.4865H141.82V67.9923H146.32V66.4942H141.82V62ZM132.82 70.9884H126.82V63.4981H132.82V70.9884ZM125.32 79.9768H126.82V81.4749H141.82V79.9768H128.32V78.4787H141.82V73.9845H125.32V75.4826H138.82V76.9807H125.32V79.9768Z" fill="black"/>
<path d="M155.584 67.4929H147.584V73.4852H148.584V74.4839H154.584V73.4852H155.584V67.4929ZM159.584 67.4929H157.584V74.4839H159.584V71.4878H162.584V70.4891H159.584V67.4929ZM153.584 73.4852H149.584V68.4916H153.584V73.4852ZM150.584 75.4826H148.584V79.4775H149.584V80.4762H159.584V79.4775H150.584V75.4826Z" fill="black"/>
<path d="M184.024 62H181.024V63.4981H176.524V64.9961H188.524V63.4981H184.024V62ZM193.024 72.4865H194.524V81.4749H197.524V62H194.524V70.9884H193.024V62H190.024V81.4749H193.024V72.4865ZM185.524 78.4787H187.024V76.9807H188.524V69.4903H187.024V67.9923H185.524V66.4942H179.524V67.9923H178.024V69.4903H176.524V76.9807H178.024V78.4787H179.524V79.9768H185.524V78.4787ZM181.024 67.9923H184.024V69.4903H185.524V76.9807H184.024V78.4787H181.024V76.9807H179.524V69.4903H181.024V67.9923Z" fill="black"/>
<path d="M200.788 78.4787V79.9768H215.788V81.4749H218.788V72.4865H223.288V70.9884H218.788V62H215.788V78.4787H208.288V73.9845H211.288V72.4865H212.788V63.4981H209.788V67.9923H203.788V63.4981H200.788V72.4865H202.288V73.9845H205.288V78.4787H200.788ZM203.788 72.4865V69.4903H209.788V72.4865H203.788Z" fill="black"/>
<path d="M36 67.4495H34.0435V65.4955H31.9565V67.4495H30V69.5338H31.9565V71.4878H34.0435V69.5338H36V67.4495Z" fill="#F9D501"/>
<path d="M234 73.4418H232.043V71.4878H229.957V73.4418H228V75.526H229.957V77.48H232.043V75.526H234V73.4418Z" fill="#F9D501"/>
<path d="M119 72.4431H117.043V70.4891H114.957V72.4431H113V74.5273H114.957V76.4813H117.043V74.5273H119V72.4431Z" fill="#F9D501"/>
<path d="M172 68.4482H170.043V66.4942H167.957V68.4482H166V70.5325H167.957V72.4865H170.043V70.5325H172V68.4482Z" fill="#F9D501"/>
<path d="M69.5 92.1667H70.6667V105H69.5V99.1667H68.3333V105H67.1667V92.1667H68.3333V98H69.5V92.1667ZM59 103.833V92.1667H60.1667V102.667H66V103.833H59ZM83.5 92.1667H84.6667V98H85.8333V99.1667H84.6667V105H83.5V92.1667ZM73 103.833V102.667H75.3333V103.833H73ZM73 93.3333V92.1667H80V98H78.8333V93.3333H73ZM75.3333 102.667V101.5H76.5V102.667H75.3333ZM77.6667 100.333V101.5H76.5V100.333H77.6667ZM77.6667 98H78.8333V100.333H77.6667V98ZM103.338 92.1667H104.505V101.5H103.338V95.6667H101.005V94.5H103.338V92.1667ZM92.8379 99.1667V98H94.0046V99.1667H92.8379ZM95.1712 103.833H104.505V105H94.0046V100.333H95.1712V103.833ZM95.1712 96.8333V98H94.0046V96.8333H95.1712ZM95.1712 95.6667H96.3379V96.8333H95.1712V95.6667ZM97.5046 96.8333V95.6667H98.6712V96.8333H97.5046ZM97.5046 95.6667H96.3379V92.1667H97.5046V95.6667ZM99.8379 99.1667V98H101.005V99.1667H99.8379ZM99.8379 96.8333V98H98.6712V96.8333H99.8379ZM106.838 98V96.8333H119.671V98H113.838V99.1667H118.505V102.667H109.171V103.833H118.505V105H108.005V101.5H117.338V100.333H108.005V99.1667H112.671V98H106.838ZM117.338 94.5V93.3333H109.171V94.5H117.338ZM108.005 92.1667H118.505V95.6667H108.005V92.1667ZM131.338 92.1667H132.505V94.5H133.671V95.6667H132.505V99.1667H131.338V92.1667ZM120.838 99.1667V92.1667H122.005V94.5H126.671V92.1667H127.838V99.1667H120.838ZM123.171 103.833H132.505V105H122.005V100.333H132.505V101.5H123.171V103.833ZM122.005 98H126.671V95.6667H122.005V98ZM145.338 92.1667H146.505V105H145.338V92.1667ZM134.838 103.833V102.667H137.171V103.833H134.838ZM134.838 93.3333V92.1667H140.671V96.8333H143.005V92.1667H144.171V105H143.005V98H140.671V99.1667H139.505V93.3333H134.838ZM137.171 102.667V101.5H138.338V102.667H137.171ZM139.505 99.1667V101.5H138.338V99.1667H139.505ZM165.176 92.1667H166.342V105H165.176V99.1667H164.009V105H162.842V95.6667H154.676V94.5H162.842V92.1667H164.009V98H165.176V92.1667ZM157.009 102.667H155.842V98H157.009V102.667ZM157.009 103.833V102.667H160.509V103.833H157.009ZM157.009 98V96.8333H160.509V98H157.009ZM157.009 93.3333V92.1667H160.509V93.3333H157.009ZM161.676 102.667H160.509V98H161.676V102.667ZM168.676 103.833V102.667H181.509V103.833H168.676ZM169.842 92.1667H180.342V93.3333H171.009V99.1667H180.342V100.333H169.842V92.1667ZM193.176 92.1667H194.342V99.1667H193.176V92.1667ZM182.676 99.1667V94.5H188.509V93.3333H182.676V92.1667H189.676V95.6667H183.842V98H190.842V99.1667H182.676ZM183.842 105V100.333H194.342V105H183.842ZM193.176 103.833V101.5H185.009V103.833H193.176Z" fill="black"/>
</svg>
