<svg width="361" height="1427" viewBox="0 0 361 1427" fill="none" xmlns="http://www.w3.org/2000/svg">
<path fill-rule="evenodd" clip-rule="evenodd" d="M20.9921 42.4009C22.0423 41.8004 23.5627 41.549 25.7497 41.549C30.9107 41.549 34.9293 34.8347 37.6732 30.2501C37.9112 29.8525 38.1396 29.4709 38.3583 29.111C38.3818 29.0725 45.3723 29.4674 48.8819 29.6656L48.883 29.6657L48.8845 29.6658L48.8854 29.6658C49.8005 29.7175 50.4783 29.7558 50.7335 29.7695C52.5817 29.8688 54.9518 30.4389 57.4264 31.0342C61.3882 31.9873 65.6176 33.0047 68.4011 32.2571C69.3723 31.9963 69.3299 31.2183 69.2867 30.4259C69.2348 29.4726 69.1817 28.4984 70.8917 28.3794C73.9626 28.1655 76.779 27.6256 79.5734 27.0898C83.0967 26.4143 86.5852 25.7455 90.5051 25.7455C92.6096 25.7455 94.7185 25.7682 96.8289 25.7909L96.8293 25.7909C101.054 25.8364 105.285 25.882 109.496 25.7455C112.639 25.6436 116.03 20.503 118.565 16.66C119.45 15.3192 120.23 14.1364 120.859 13.3807C126.928 6.0914 140.548 7.18995 151.765 8.09469C155.163 8.36873 158.34 8.62498 161.02 8.62498H195.11C202.071 8.62498 208.436 6.88491 214.641 5.18833C225.204 2.30055 235.307 -0.461226 247.101 5.69841C255.018 9.83304 261.853 12.5759 270.917 12.5759C272.14 12.5759 273.382 12.5397 274.629 12.5035C277.141 12.4304 279.676 12.3566 282.125 12.5759C288.126 13.1131 297.07 21.5042 303.018 27.0843L303.019 27.0851C304.346 28.33 305.523 29.4351 306.486 30.2817C316.321 38.9302 317.149 40.7309 317.149 52.8895C317.149 55.2051 317.107 57.4792 317.065 59.7198C316.848 71.3201 316.649 82.0195 322.442 92.9104C328.445 104.198 334.019 115.923 338.786 127.737C340.179 131.189 341.847 134.49 343.516 137.792C346.225 143.153 348.934 148.514 350.461 154.515C353.514 166.516 352.584 178.87 351.66 191.165L351.66 191.166C351.215 197.074 350.772 202.968 350.772 208.803C350.772 209.965 350.769 211.118 350.767 212.264V212.265C350.735 226.28 350.705 239.198 355.52 252.775C360 265.41 359.163 280.298 358.369 294.425V294.426V294.426V294.427C358.07 299.752 357.777 304.969 357.777 309.916C357.777 315.048 353.78 311.801 353.574 308.892C353.201 303.637 353.325 312.408 353.45 321.182V321.183V321.185V321.187C353.512 325.575 353.574 329.963 353.574 332.597C353.574 344.755 351.998 356.925 350.421 369.094C348.243 385.913 346.064 402.731 348.048 419.516C349.053 428.021 351.053 436.71 354.352 444.685C359.341 456.745 357.876 468.58 353.574 480.828C352.859 482.864 352.06 484.969 351.241 487.126C346.495 499.63 341.096 513.852 347.659 526.19C350.06 530.704 349.696 531.366 347.128 532.159L347.118 532.301C347.072 532.99 347.01 533.893 347.271 535.067C347.348 535.411 347.638 536.051 347.978 536.799C348.759 538.52 349.799 540.812 349.087 541.382C347.703 542.489 347.831 545.138 347.929 547.158C347.952 547.628 347.973 548.064 347.973 548.439C347.973 551.32 348.347 554.215 348.72 557.109L348.72 557.11C349.06 559.739 349.399 562.369 349.459 564.988C349.486 566.179 349.5 567.373 349.515 568.566C349.569 573.09 349.624 577.62 350.367 582.074C353.769 602.489 354.659 623.963 354.659 644.598C354.659 651.879 353.167 658.842 351.679 665.791C350.196 672.713 348.716 679.622 348.716 686.818V705.554C348.716 713.007 349.783 720.353 350.851 727.704C351.519 732.306 352.188 736.909 352.595 741.542C353.278 749.309 353.236 757.11 353.193 764.907V764.908V764.908V764.909C353.183 766.791 353.173 768.673 353.173 770.555C353.173 770.877 353.185 771.284 353.198 771.751C353.277 774.446 353.412 779.101 351.642 780.394C351.933 780.509 351.94 780.933 351.947 781.332C351.949 781.464 351.951 781.593 351.964 781.707C351.974 781.8 351.991 781.883 352.02 781.949C352.332 782.651 352.195 783.552 352.056 784.457C351.979 784.961 351.902 785.466 351.902 785.94C351.902 787.428 352.14 790.201 352.552 791.646C353.167 793.796 353.28 796.623 352.671 798.8C350.87 805.232 349.341 811.698 348.059 818.252C347.401 821.613 347.658 824.917 347.917 828.241C348.027 829.655 348.137 831.073 348.177 832.501C348.272 835.854 348.655 839.31 349.242 842.611C349.651 844.912 349.535 847.048 349.416 849.241V849.242C349.359 850.301 349.301 851.374 349.301 852.485C349.301 853.201 349.301 853.916 349.301 854.632L349.302 856.933V856.933V856.934C349.309 871.226 349.316 885.503 348.68 899.814C348.578 902.114 348.244 904.389 347.911 906.662C347.512 909.385 347.113 912.105 347.113 914.861C347.113 918.686 347.494 922.396 348.177 926.153C348.659 928.804 349.544 931.459 350.431 934.12C351.997 938.818 353.568 943.532 352.937 948.266C352.601 950.786 350.455 954.833 348.776 957.504C348.551 958.914 348.52 960.312 348.52 961.822C348.52 963.555 348.81 965.319 349.101 967.092C349.581 970.008 350.064 972.948 349.268 975.813C348.81 977.463 348.447 979.119 348.085 980.775L348.085 980.776C347.425 983.793 346.765 986.808 345.528 989.777C342.237 997.674 344.587 1007.98 346.399 1015.92L346.414 1015.99C348.457 1024.94 349.056 1034.07 347.91 1043.19C347.555 1046.03 347.125 1048.83 346.696 1051.64C346.06 1055.81 345.423 1059.97 345.029 1064.2C344.301 1072 344.386 1079.55 344.473 1087.2C344.502 1089.71 344.53 1092.24 344.53 1094.78C344.53 1097.26 344.293 1100.05 343.747 1102.86C344.842 1104.78 344.648 1108.18 344.492 1110.93C344.443 1111.79 344.397 1112.59 344.397 1113.26C344.397 1114.78 344.203 1116.22 344.008 1117.67C343.811 1119.14 343.612 1120.61 343.612 1122.2C343.612 1123.5 343.655 1124.83 343.698 1126.16C343.802 1129.35 343.907 1132.59 343.437 1135.64C342.959 1138.75 342.196 1141.85 341.432 1144.95C340.169 1150.08 338.9 1155.23 338.9 1160.51C338.9 1165.46 339.688 1169.99 340.532 1174.84L340.558 1174.99C341.844 1182.39 342.312 1189.71 342.783 1197.24C342.812 1197.71 342.834 1198.2 342.856 1198.69C342.958 1200.97 343.066 1203.38 344.004 1205.44C344.3 1206.09 344.766 1206.66 345.229 1207.22C345.784 1207.9 346.334 1208.57 346.578 1209.37C348.029 1214.12 348.009 1219.64 347.989 1224.99C347.979 1227.69 347.969 1230.34 348.149 1232.84C348.484 1237.48 348.201 1242.21 347.919 1246.93C347.729 1250.13 347.538 1253.32 347.538 1256.48V1281.22C347.538 1282.63 347.533 1284.05 347.529 1285.47C347.493 1296.37 347.457 1307.58 349.501 1318.21C350.177 1321.73 349.827 1325.89 349.487 1329.93C349.296 1332.21 349.109 1334.44 349.109 1336.49V1350.54C349.109 1351.49 349.12 1352.43 349.131 1353.38C349.188 1358.05 349.244 1362.73 347.931 1367.25C346.589 1371.87 345.59 1376.69 345.139 1381.43C344.984 1383.06 344.716 1384.7 344.447 1386.35C344.051 1388.78 343.652 1391.22 343.612 1393.64C343.518 1399.24 342.979 1399.73 339.628 1402.78C339.297 1403.08 338.939 1403.41 338.551 1403.77C336.202 1405.93 326.865 1412.75 323.195 1411.01C315.609 1407.41 308.528 1406.06 300.771 1410.44C288.496 1417.38 274.822 1419.11 260.984 1420.69C256.643 1421.19 252.334 1421.91 248.027 1422.63C242.993 1423.47 237.962 1424.31 232.889 1424.79C222.604 1425.77 210.921 1423.51 200.717 1421.54L199.951 1421.39C198.18 1421.05 196.395 1420.69 194.601 1420.33C184.722 1418.36 174.549 1416.33 164.614 1416.33C157.281 1416.33 149.665 1417.08 142.235 1417.82C140.61 1417.98 138.994 1418.14 137.392 1418.29C133.001 1418.71 128.568 1418.84 124.141 1418.98C120.709 1419.09 117.281 1419.19 113.877 1419.43C103.969 1420.11 94.7372 1417.71 85.4894 1415.31C79.4348 1413.73 73.3732 1412.16 67.11 1411.44C59.1772 1410.54 51.286 1409.58 43.3774 1408.52C41.5953 1408.28 39.6355 1408.57 37.6777 1408.85C36.2371 1409.05 34.7976 1409.26 33.4307 1409.26C24.9007 1409.26 19.5477 1407.34 19.2959 1398.27C19.1608 1393.41 19.4429 1388.25 19.7209 1383.16C19.8593 1380.63 19.9967 1378.12 20.0811 1375.67C20.2502 1370.77 20.8856 1365.81 21.5188 1360.86C21.8657 1358.16 22.2119 1355.45 22.4806 1352.77C23.554 1342.03 21.7387 1332.44 19.3831 1321.75C18.5545 1317.99 17.6568 1314.29 16.7647 1310.61C13.9583 1299.03 11.2071 1287.68 10.8324 1275.5C10.5322 1265.75 10.5593 1255.63 11.8358 1245.93C12.1505 1243.53 12.2307 1241.07 12.311 1238.6C12.4288 1234.98 12.547 1231.35 13.4064 1227.91C14.7196 1222.66 14.3661 1216.89 14.0154 1211.16C13.7731 1207.21 13.5321 1203.28 13.8426 1199.55C14.2058 1195.19 15.3631 1191.06 16.5186 1186.93C17.9085 1181.96 19.2959 1177 19.2959 1171.67C19.2959 1166.42 18.5084 1161.19 17.722 1155.97C16.9378 1150.76 16.1548 1145.56 16.1548 1140.35C16.1548 1137.1 16.1808 1133.85 16.2068 1130.6C16.2975 1119.25 16.3881 1107.93 15.3695 1096.73C15.3928 1096.72 15.416 1096.71 15.4391 1096.7C15.1462 1095.83 14.8263 1094.98 14.5073 1094.13C13.476 1091.39 12.4547 1088.67 12.3898 1085.42C12.3046 1081.16 13.5158 1077.67 14.7861 1074.01C15.3841 1072.29 15.9952 1070.53 16.4903 1068.63C17.8965 1063.24 19.0704 1057.55 17.9864 1052.01C16.2976 1043.37 16.1174 1037.01 19.3717 1028.79C20.044 1027.09 19.823 1025.41 19.599 1023.7C19.4857 1022.83 19.3717 1021.97 19.3717 1021.08C19.3717 1019.45 19.5275 1017.92 19.6883 1016.34L19.6884 1016.34C19.7411 1015.82 19.7943 1015.3 19.8427 1014.77C20.0507 1012.48 19.5508 1009.02 19.1223 1006.79C18.8934 1005.6 18.8028 1004.4 18.712 1003.19C18.601 1001.72 18.4898 1000.24 18.1249 998.782C17.2913 995.447 17.5918 990.114 18.6236 986.813C19.4643 984.122 19.8704 980.636 19.8704 977.836C19.8704 971.909 18.8013 966.103 17.7312 960.291L17.731 960.29C17.6125 959.646 17.4939 959.002 17.3769 958.358C17.1835 958.358 17.7106 958.336 18.4141 958.329C17.5752 955.158 17.1995 951.766 17.1995 948.236C17.1995 943.647 16.8005 939.093 16.4015 934.538C16.0023 929.982 15.6031 925.425 15.6031 920.832C15.6031 917.262 15.8853 913.648 16.1676 910.031C16.5404 905.257 16.9134 900.479 16.6378 895.793C16.5448 894.212 16.4915 892.615 16.4381 891.015C16.3251 887.632 16.2116 884.232 15.7214 880.923C15.6774 880.627 15.6324 880.325 15.5869 880.021C15.0956 876.733 14.5389 873.008 14.5389 869.778C14.5389 867.536 14.9394 865.339 15.3392 863.147C15.7376 860.963 16.1353 858.783 16.1353 856.564C16.1353 851.263 16.5355 845.979 16.9352 840.703C17.3337 835.442 17.7316 830.188 17.7316 824.933C17.7316 823.897 17.7427 822.86 17.7537 821.824C17.807 816.813 17.8604 811.804 16.6674 806.9C16.5834 806.555 16.4986 806.207 16.4132 805.857C14.8851 799.592 13.1793 792.598 12.9426 786.206C10.7906 786.924 11.636 785.901 12.8916 784.723C12.711 783.47 12.8308 781.31 12.9254 779.605C12.9889 778.459 13.0411 777.52 12.9828 777.199C12.6922 775.601 12.6093 773.965 12.526 772.321C12.4396 770.617 12.3527 768.903 12.0336 767.212C11.8092 766.023 11.5338 764.831 11.2575 763.635L11.2572 763.634C10.6793 761.134 10.0975 758.616 9.97011 756.069C9.72096 751.086 9.95068 745.993 11.4558 741.212C11.9009 739.798 12.3835 738.33 12.8789 736.822C15.352 729.298 18.1416 720.81 18.1416 713.396C18.1416 712.42 17.4599 712.127 16.7483 711.821C16.0883 711.538 15.4027 711.244 15.2114 710.383C14.9832 709.356 15.0495 708.162 15.1131 707.018C15.1419 706.499 15.1702 705.991 15.1702 705.513C15.1702 698.912 15.4292 692.474 15.9543 685.91C16.0311 684.95 16.2228 683.947 16.4135 682.949C16.7751 681.056 17.1332 679.182 16.6972 677.656C16.4959 676.951 16.558 676.198 16.6203 675.441C16.6878 674.623 16.7555 673.801 16.4908 673.034C15.553 670.314 13.4342 668.161 11.4558 666.183C8.28579 663.013 7.64474 659.29 9.22725 655.287C10.3683 652.401 11.058 649.319 11.7473 646.239C12.6554 642.181 13.5626 638.127 15.5003 634.528C17.2317 631.313 17.3987 625.869 17.3987 622.312V601.223C17.3987 600.294 17.2015 599.043 16.9917 597.712C16.6128 595.308 16.193 592.645 16.821 591.153C18.6773 586.745 17.3446 581.777 16.0435 576.927C15.2292 573.891 14.4273 570.902 14.4273 568.125C14.4273 566.508 14.8482 563.957 15.5552 561.435C15.8921 558.712 16.5719 555.895 17.2194 553.212C17.8447 550.62 18.4398 548.154 18.6671 546.018C19.3484 539.613 17.7986 533.612 15.943 527.507C15.5507 526.216 14.928 525.19 14.3088 524.169C13.5187 522.866 12.7342 521.573 12.4406 519.752C11.0147 510.905 11.2782 501.671 11.5381 492.561C11.6394 489.011 11.7401 485.48 11.7401 481.999C11.7401 471.024 14.0058 459.977 16.2471 449.048C17.1302 444.743 18.0095 440.455 18.7449 436.198C19.0238 434.584 19.5019 432.907 19.9863 431.209C20.8485 428.186 21.7309 425.092 21.5468 422.15C21.4862 421.18 20.8943 420.152 20.2743 419.075C19.6423 417.978 18.981 416.829 18.8228 415.639C18.2387 411.246 17.2013 407.088 16.1714 402.96C14.6481 396.855 13.1411 390.814 13.1411 384.178C13.1411 369.213 13.96 351.851 17.4218 337.206C19.0733 330.22 18.506 323.699 17.9128 316.88C17.6862 314.275 17.4559 311.626 17.344 308.892C17.3099 308.059 17.2816 307.239 17.2537 306.431C17.0868 301.596 16.9335 297.153 15.6317 292.503C15.4852 291.98 15.3302 291.435 15.1703 290.874L15.1652 290.857L15.1637 290.851L15.1627 290.848C13.6994 285.712 11.8353 279.17 12.3628 274.212C12.7217 270.838 17.4006 279.305 18.6671 282.479C18.9089 283.086 19.1414 283.665 19.3685 284.226C21.6196 276.909 25.9004 270.342 30.1074 263.888C30.4719 263.329 30.8359 262.771 31.1979 262.213C31.4142 261.88 31.6476 261.541 31.8852 261.196L31.8856 261.196C32.936 259.672 34.0676 258.031 34.1555 256.213C34.2841 253.554 34.3854 250.902 34.4866 248.254L34.4867 248.253L34.4867 248.252C34.7253 242.008 34.9633 235.781 35.5564 229.508C35.6186 228.851 35.7333 228.062 35.8602 227.19C36.6472 221.78 37.9 213.169 29.9526 212.754C11.6503 211.798 12.4132 192.436 12.9691 178.327C13.0577 176.077 13.1411 173.961 13.1411 172.074C13.1411 163.042 14.1926 154.084 15.2437 145.129C16.2941 136.181 17.344 127.237 17.344 118.225C17.344 110.485 15.184 107.175 10.2614 100.812C-1.5358 85.5636 1.04294 71.1311 7.22594 53.6943C7.32022 53.4284 7.4343 53.0955 7.56662 52.7093C8.87331 48.8961 11.9591 39.891 15.3204 38.9882C18.0682 38.2502 19.2492 39.9335 20.4389 41.6292C20.6212 41.8891 20.8037 42.1492 20.9921 42.4009Z" fill="white"/>
<path d="M20.9921 42.4009L19.7911 43.2996L20.5856 44.3614L21.7367 43.7031L20.9921 42.4009ZM37.6732 30.2501L36.3861 29.4798L36.3861 29.4798L37.6732 30.2501ZM38.3583 29.111L39.6401 29.8902L39.6402 29.8901L38.3583 29.111ZM48.8819 29.6656L48.9668 28.168L48.9665 28.168L48.8819 29.6656ZM48.883 29.6657L48.9698 28.1682L48.9679 28.1681L48.883 29.6657ZM48.8845 29.6658L48.9732 28.1684L48.9714 28.1683L48.8845 29.6658ZM48.8854 29.6658L48.7968 31.1632L48.8008 31.1634L48.8854 29.6658ZM50.7335 29.7695L50.653 31.2673H50.653L50.7335 29.7695ZM57.4264 31.0342L57.7772 29.5758L57.4264 31.0342ZM68.4011 32.2571L68.012 30.8084L68.4011 32.2571ZM69.2867 30.4259L70.7845 30.3443V30.3443L69.2867 30.4259ZM70.8917 28.3794L70.7875 26.883L70.8917 28.3794ZM79.5734 27.0898L79.8558 28.563L79.5734 27.0898ZM96.8289 25.7909L96.8486 24.291L96.845 24.291L96.8289 25.7909ZM96.8293 25.7909L96.8096 27.2908L96.8132 27.2908L96.8293 25.7909ZM109.496 25.7455L109.447 24.2462L109.496 25.7455ZM118.565 16.66L117.313 15.834V15.834L118.565 16.66ZM120.859 13.3807L122.012 14.3404V14.3404L120.859 13.3807ZM151.765 8.09469L151.886 6.59954L151.765 8.09469ZM214.641 5.18833L214.246 3.74142L214.641 5.18833ZM247.101 5.69841L246.407 7.02801V7.02801L247.101 5.69841ZM274.629 12.5035L274.673 14.0028L274.629 12.5035ZM282.125 12.5759L281.991 14.0699L282.125 12.5759ZM303.018 27.0843L304.056 26.0013L304.05 25.9958L304.044 25.9903L303.018 27.0843ZM303.019 27.0851L301.981 28.1681L301.986 28.1736L301.992 28.179L303.019 27.0851ZM306.486 30.2817L305.496 31.4081V31.4081L306.486 30.2817ZM317.065 59.7198L315.565 59.6918V59.6918L317.065 59.7198ZM322.442 92.9104L321.117 93.6148L322.442 92.9104ZM338.786 127.737L340.177 127.175V127.175L338.786 127.737ZM343.516 137.792L342.177 138.468L343.516 137.792ZM350.461 154.515L351.914 154.145L350.461 154.515ZM351.66 191.165L353.147 191.363L353.152 191.321L353.155 191.278L351.66 191.165ZM351.66 191.166L350.173 190.968L350.167 191.01L350.164 191.053L351.66 191.166ZM350.767 212.264L349.267 212.261V212.264H350.767ZM350.767 212.265L352.267 212.268V212.265H350.767ZM355.52 252.775L354.106 253.276L355.52 252.775ZM358.369 294.425L356.872 294.341L356.869 294.383V294.425H358.369ZM358.369 294.427L359.867 294.511L359.869 294.469V294.427H358.369ZM353.574 308.892L355.07 308.786L353.574 308.892ZM353.45 321.182H354.95V321.172L354.95 321.161L353.45 321.182ZM353.45 321.187H351.95V321.198L351.95 321.208L353.45 321.187ZM350.421 369.094L351.909 369.287L350.421 369.094ZM348.048 419.516L349.538 419.34L348.048 419.516ZM354.352 444.685L352.966 445.258L354.352 444.685ZM353.574 480.828L354.989 481.325L353.574 480.828ZM351.241 487.126L352.643 487.658L351.241 487.126ZM347.659 526.19L346.334 526.894L347.659 526.19ZM347.128 532.159L346.685 530.726L345.7 531.03L345.631 532.059L347.128 532.159ZM347.118 532.301L348.615 532.402L348.615 532.401L347.118 532.301ZM347.271 535.067L345.807 535.393L345.807 535.393L347.271 535.067ZM347.978 536.799L349.344 536.179V536.179L347.978 536.799ZM349.087 541.382L350.024 542.553L350.024 542.553L349.087 541.382ZM347.929 547.158L346.431 547.23V547.23L347.929 547.158ZM348.72 557.109L347.233 557.302L347.236 557.329L347.241 557.356L348.72 557.109ZM348.72 557.11L350.208 556.918L350.204 556.891L350.2 556.863L348.72 557.11ZM349.459 564.988L350.958 564.954L349.459 564.988ZM349.515 568.566L351.015 568.548V568.548L349.515 568.566ZM350.367 582.074L348.887 582.321L350.367 582.074ZM351.679 665.791L350.212 665.477L351.679 665.791ZM350.851 727.704L349.366 727.919L350.851 727.704ZM352.595 741.542L354.089 741.411L352.595 741.542ZM353.193 764.907L351.693 764.899V764.907H353.193ZM353.193 764.909L354.693 764.917V764.909H353.193ZM353.198 771.751L354.698 771.707L353.198 771.751ZM351.642 780.394L350.757 779.183L348.552 780.793L351.094 781.791L351.642 780.394ZM351.947 781.332L353.447 781.306V781.306L351.947 781.332ZM351.964 781.707L350.473 781.87V781.87L351.964 781.707ZM352.02 781.949L350.65 782.558L350.65 782.558L352.02 781.949ZM352.056 784.457L350.574 784.23L352.056 784.457ZM352.552 791.646L351.11 792.058L352.552 791.646ZM352.671 798.8L351.226 798.395L352.671 798.8ZM348.059 818.252L349.531 818.54L348.059 818.252ZM347.917 828.241L349.412 828.124V828.124L347.917 828.241ZM348.177 832.501L349.677 832.458L348.177 832.501ZM349.242 842.611L350.718 842.348L349.242 842.611ZM349.416 849.241L347.918 849.16L347.916 849.2V849.241H349.416ZM349.416 849.242L350.914 849.323L350.916 849.282V849.242H349.416ZM349.301 854.632L347.801 854.633V854.633L349.301 854.632ZM349.302 856.933H350.802V856.932L349.302 856.933ZM349.302 856.934H347.802V856.935L349.302 856.934ZM348.68 899.814L347.181 899.747L348.68 899.814ZM347.911 906.662L346.427 906.445L347.911 906.662ZM348.177 926.153L346.701 926.422L348.177 926.153ZM350.431 934.12L351.854 933.646L350.431 934.12ZM352.937 948.266L351.45 948.068L352.937 948.266ZM348.776 957.504L347.506 956.706L347.343 956.966L347.294 957.269L348.776 957.504ZM349.101 967.092L347.621 967.335L349.101 967.092ZM349.268 975.813L347.823 975.412L349.268 975.813ZM348.085 980.775L349.549 981.1L349.55 981.095L348.085 980.775ZM348.085 980.776L346.62 980.451L346.619 980.456L348.085 980.776ZM345.528 989.777L346.912 990.354L345.528 989.777ZM346.399 1015.92L344.936 1016.25L344.936 1016.25L346.399 1015.92ZM346.414 1015.99L347.877 1015.65L347.877 1015.65L346.414 1015.99ZM347.91 1043.19L346.422 1043.01L347.91 1043.19ZM346.696 1051.64L348.179 1051.87L346.696 1051.64ZM345.029 1064.2L346.522 1064.33L345.029 1064.2ZM344.473 1087.2L342.973 1087.22L344.473 1087.2ZM343.747 1102.86L342.275 1102.57L342.169 1103.12L342.444 1103.6L343.747 1102.86ZM344.492 1110.93L342.995 1110.84L344.492 1110.93ZM344.008 1117.67L342.522 1117.47L344.008 1117.67ZM343.698 1126.16L345.198 1126.12L343.698 1126.16ZM343.437 1135.64L344.92 1135.87L343.437 1135.64ZM341.432 1144.95L342.889 1145.31L341.432 1144.95ZM340.532 1174.84L342.01 1174.59L342.01 1174.59L340.532 1174.84ZM340.558 1174.99L339.08 1175.25H339.08L340.558 1174.99ZM342.783 1197.24L344.28 1197.15L342.783 1197.24ZM342.856 1198.69L341.358 1198.75L342.856 1198.69ZM344.004 1205.44L342.639 1206.06L344.004 1205.44ZM345.229 1207.22L344.069 1208.17L344.069 1208.17L345.229 1207.22ZM346.578 1209.37L348.013 1208.93H348.013L346.578 1209.37ZM347.989 1224.99L349.489 1224.99L347.989 1224.99ZM348.149 1232.84L349.645 1232.73L348.149 1232.84ZM347.919 1246.93L346.422 1246.85V1246.85L347.919 1246.93ZM347.529 1285.47L349.029 1285.47L347.529 1285.47ZM349.501 1318.21L350.974 1317.93L349.501 1318.21ZM349.487 1329.93L347.993 1329.81L349.487 1329.93ZM349.131 1353.38L350.631 1353.36L349.131 1353.38ZM347.931 1367.25L346.49 1366.83L347.931 1367.25ZM345.139 1381.43L343.645 1381.29L345.139 1381.43ZM344.447 1386.35L342.967 1386.1V1386.1L344.447 1386.35ZM343.612 1393.64L342.112 1393.62L343.612 1393.64ZM339.628 1402.78L340.637 1403.89H340.637L339.628 1402.78ZM338.551 1403.77L339.569 1404.87H339.569L338.551 1403.77ZM323.195 1411.01L322.553 1412.36L323.195 1411.01ZM300.771 1410.44L301.509 1411.75L300.771 1410.44ZM260.984 1420.69L261.154 1422.18L260.984 1420.69ZM248.027 1422.63L248.275 1424.11L248.027 1422.63ZM232.889 1424.79L233.03 1426.29H233.03L232.889 1424.79ZM200.717 1421.54L201.001 1420.07H201.001L200.717 1421.54ZM199.951 1421.39L199.667 1422.86H199.667L199.951 1421.39ZM194.601 1420.33L194.895 1418.86H194.895L194.601 1420.33ZM142.235 1417.82L142.383 1419.31H142.383L142.235 1417.82ZM137.392 1418.29L137.251 1416.8H137.251L137.392 1418.29ZM124.141 1418.98L124.094 1417.48H124.094L124.141 1418.98ZM113.877 1419.43L113.774 1417.93H113.774L113.877 1419.43ZM85.4894 1415.31L85.112 1416.76H85.1121L85.4894 1415.31ZM67.11 1411.44L66.9402 1412.93H66.9402L67.11 1411.44ZM43.3774 1408.52L43.1792 1410.01H43.1792L43.3774 1408.52ZM37.6777 1408.85L37.4638 1407.36L37.4638 1407.36L37.6777 1408.85ZM19.2959 1398.27L17.7965 1398.31L19.2959 1398.27ZM19.7209 1383.16L21.2186 1383.25L19.7209 1383.16ZM20.0811 1375.67L18.582 1375.62L20.0811 1375.67ZM21.5188 1360.86L23.0066 1361.05L21.5188 1360.86ZM22.4806 1352.77L20.988 1352.62L22.4806 1352.77ZM19.3831 1321.75L20.848 1321.43H20.848L19.3831 1321.75ZM16.7647 1310.61L15.3069 1310.96H15.3069L16.7647 1310.61ZM10.8324 1275.5L9.33314 1275.55L10.8324 1275.5ZM11.8358 1245.93L13.323 1246.12L11.8358 1245.93ZM12.311 1238.6L13.8102 1238.65L12.311 1238.6ZM13.4064 1227.91L14.8616 1228.27H14.8616L13.4064 1227.91ZM14.0154 1211.16L12.5182 1211.26L14.0154 1211.16ZM13.8426 1199.55L15.3374 1199.68L13.8426 1199.55ZM16.5186 1186.93L15.0741 1186.52H15.0741L16.5186 1186.93ZM17.722 1155.97L16.2387 1156.19H16.2387L17.722 1155.97ZM16.2068 1130.6L14.7068 1130.59L16.2068 1130.6ZM15.3695 1096.73L14.892 1095.3L13.7684 1095.68L13.8757 1096.86L15.3695 1096.73ZM15.4391 1096.7L15.9127 1098.13L17.3406 1097.65L16.8608 1096.22L15.4391 1096.7ZM14.5073 1094.13L13.1031 1094.66H13.1031L14.5073 1094.13ZM12.3898 1085.42L13.8895 1085.39L12.3898 1085.42ZM14.7861 1074.01L13.369 1073.52H13.369L14.7861 1074.01ZM16.4903 1068.63L17.9416 1069.01H17.9416L16.4903 1068.63ZM17.9864 1052.01L16.5143 1052.29H16.5143L17.9864 1052.01ZM19.3717 1028.79L17.977 1028.24H17.977L19.3717 1028.79ZM19.599 1023.7L21.0862 1023.5H21.0862L19.599 1023.7ZM19.6883 1016.34L21.1806 1016.49L21.1818 1016.48L19.6883 1016.34ZM19.6884 1016.34L18.1961 1016.19L18.1949 1016.2L19.6884 1016.34ZM19.8427 1014.77L21.3365 1014.9L19.8427 1014.77ZM19.1223 1006.79L20.5954 1006.51L19.1223 1006.79ZM18.712 1003.19L20.2078 1003.08L18.712 1003.19ZM18.1249 998.782L16.6697 999.145L16.6697 999.145L18.1249 998.782ZM18.6236 986.813L20.0554 987.26H20.0554L18.6236 986.813ZM17.7312 960.291L19.2065 960.02L19.205 960.012L17.7312 960.291ZM17.731 960.29L16.2557 960.561L16.2572 960.569L17.731 960.29ZM17.3769 958.358L18.8527 958.09L18.6287 956.858H17.3769V958.358ZM18.4141 958.329L18.4288 959.829L20.3576 959.81L19.8642 957.945L18.4141 958.329ZM16.4015 934.538L14.9072 934.669L16.4015 934.538ZM16.1676 910.031L14.6722 909.915L16.1676 910.031ZM16.6378 895.793L18.1352 895.705L16.6378 895.793ZM16.4381 891.015L17.9372 890.965L16.4381 891.015ZM15.7214 880.923L14.2376 881.143L14.2376 881.143L15.7214 880.923ZM15.5869 880.021L14.1033 880.242H14.1033L15.5869 880.021ZM15.3392 863.147L13.8636 862.878L13.8636 862.878L15.3392 863.147ZM16.9352 840.703L18.4309 840.816L16.9352 840.703ZM17.7537 821.824L16.2538 821.808L17.7537 821.824ZM16.6674 806.9L18.1249 806.545L16.6674 806.9ZM16.4132 805.857L14.956 806.212H14.956L16.4132 805.857ZM12.9426 786.206L14.4415 786.151L14.3674 784.15L12.4682 784.783L12.9426 786.206ZM12.8916 784.723L13.9178 785.817L14.4877 785.283L14.3763 784.509L12.8916 784.723ZM12.9254 779.605L11.4277 779.522L12.9254 779.605ZM12.9828 777.199L11.507 777.468H11.507L12.9828 777.199ZM12.526 772.321L14.024 772.245L12.526 772.321ZM12.0336 767.212L10.5596 767.49V767.49L12.0336 767.212ZM11.2575 763.635L9.79502 763.969L9.79597 763.973L11.2575 763.635ZM11.2572 763.634L12.7197 763.301L12.7187 763.297L11.2572 763.634ZM9.97011 756.069L11.4682 755.994L9.97011 756.069ZM11.4558 741.212L10.0251 740.761H10.0251L11.4558 741.212ZM12.8789 736.822L11.4539 736.354L11.4539 736.354L12.8789 736.822ZM16.7483 711.821L17.3401 710.443L17.34 710.443L16.7483 711.821ZM15.2114 710.383L13.7471 710.708H13.7471L15.2114 710.383ZM15.1131 707.018L16.6108 707.101L15.1131 707.018ZM15.9543 685.91L14.4591 685.79L15.9543 685.91ZM16.4135 682.949L17.8868 683.23H17.8868L16.4135 682.949ZM16.6972 677.656L18.1394 677.244H18.1394L16.6972 677.656ZM16.6203 675.441L15.1254 675.318H15.1254L16.6203 675.441ZM16.4908 673.034L15.0727 673.522L15.0727 673.523L16.4908 673.034ZM11.4558 666.183L12.5165 665.122H12.5165L11.4558 666.183ZM9.22725 655.287L7.83231 654.736L7.83231 654.736L9.22725 655.287ZM11.7473 646.239L13.2111 646.567H13.2111L11.7473 646.239ZM15.5003 634.528L14.1796 633.817H14.1796L15.5003 634.528ZM16.9917 597.712L15.51 597.946H15.51L16.9917 597.712ZM16.821 591.153L15.4385 590.571H15.4385L16.821 591.153ZM16.0435 576.927L14.5948 577.315H14.5948L16.0435 576.927ZM15.5552 561.435L16.9996 561.84L17.03 561.731L17.0439 561.619L15.5552 561.435ZM17.2194 553.212L18.6776 553.563H18.6776L17.2194 553.212ZM18.6671 546.018L20.1587 546.176L18.6671 546.018ZM15.943 527.507L14.5078 527.943H14.5078L15.943 527.507ZM14.3088 524.169L15.5913 523.391H15.5913L14.3088 524.169ZM12.4406 519.752L10.9597 519.99H10.9597L12.4406 519.752ZM11.5381 492.561L13.0375 492.604L11.5381 492.561ZM16.2471 449.048L17.7165 449.35L16.2471 449.048ZM18.7449 436.198L20.223 436.453L18.7449 436.198ZM19.9863 431.209L21.4288 431.62H21.4288L19.9863 431.209ZM21.5468 422.15L23.0439 422.057L21.5468 422.15ZM20.2743 419.075L18.9743 419.824L18.9743 419.824L20.2743 419.075ZM18.8228 415.639L17.3358 415.836L18.8228 415.639ZM16.1714 402.96L17.6268 402.597H17.6268L16.1714 402.96ZM17.4218 337.206L18.8816 337.551H18.8816L17.4218 337.206ZM17.9128 316.88L16.4185 317.01L17.9128 316.88ZM17.344 308.892L18.8427 308.83L17.344 308.892ZM17.2537 306.431L18.7528 306.379L17.2537 306.431ZM15.6317 292.503L14.1872 292.907H14.1872L15.6317 292.503ZM15.1703 290.874L16.6129 290.463L16.6127 290.463L15.1703 290.874ZM15.1652 290.857L16.6076 290.445L16.607 290.443L15.1652 290.857ZM15.1637 290.851L13.7207 291.261L13.7219 291.265L15.1637 290.851ZM15.1627 290.848L16.6057 290.438L16.6053 290.437L15.1627 290.848ZM12.3628 274.212L10.8712 274.053L12.3628 274.212ZM18.6671 282.479L17.2739 283.035L17.2739 283.035L18.6671 282.479ZM19.3685 284.226L17.9782 284.789L19.5616 288.699L20.8022 284.667L19.3685 284.226ZM30.1074 263.888L28.8508 263.069H28.8508L30.1074 263.888ZM31.1979 262.213L32.4562 263.029L32.4562 263.029L31.1979 262.213ZM31.8852 261.196L33.1201 262.048L33.1339 262.028L33.147 262.007L31.8852 261.196ZM31.8856 261.196L30.6507 260.344L30.6369 260.364L30.6239 260.385L31.8856 261.196ZM34.1555 256.213L35.6537 256.286L34.1555 256.213ZM34.4866 248.254L35.9855 248.311L35.9857 248.307L34.4866 248.254ZM34.4867 248.253L32.9885 248.178L32.988 248.188L32.9876 248.199L34.4867 248.253ZM34.4867 248.252L35.9848 248.327L35.9853 248.318L35.9856 248.31L34.4867 248.252ZM35.5564 229.508L37.0498 229.65L35.5564 229.508ZM35.8602 227.19L37.3445 227.406L35.8602 227.19ZM29.9526 212.754L30.0308 211.256L29.9526 212.754ZM12.9691 178.327L14.4679 178.386L12.9691 178.327ZM15.2437 145.129L16.7335 145.304L15.2437 145.129ZM10.2614 100.812L9.07496 101.73H9.07496L10.2614 100.812ZM7.22594 53.6943L8.63969 54.1956L8.63969 54.1956L7.22594 53.6943ZM7.56662 52.7093L6.14762 52.2231H6.14762L7.56662 52.7093ZM15.3204 38.9882L15.7095 40.4369L15.3204 38.9882ZM20.4389 41.6292L19.211 42.4908L20.4389 41.6292ZM25.7497 40.049C23.5073 40.049 21.6534 40.2948 20.2475 41.0988L21.7367 43.7031C22.4312 43.306 23.618 43.049 25.7497 43.049V40.049ZM36.3861 29.4798C35.0006 31.7948 33.3791 34.4953 31.4946 36.6246C29.578 38.7902 27.6634 40.049 25.7497 40.049V43.049C28.997 43.049 31.6721 40.9506 33.7411 38.6129C35.8422 36.2389 37.6019 33.29 38.9603 31.0205L36.3861 29.4798ZM37.0766 28.3319C36.8547 28.6969 36.6235 29.0831 36.3861 29.4798L38.9603 31.0205C39.1989 30.6219 39.4245 30.2448 39.6401 29.8902L37.0766 28.3319ZM48.9665 28.168C47.212 28.0689 44.5852 27.9205 42.394 27.8017C41.2988 27.7423 40.3097 27.6902 39.5918 27.6553C39.2338 27.6379 38.9383 27.6245 38.7294 27.6167C38.6267 27.6129 38.5353 27.61 38.465 27.6089C38.433 27.6084 38.3869 27.6079 38.3403 27.6092C38.3221 27.6097 38.2702 27.6112 38.2073 27.6178C38.182 27.6205 38.1042 27.6289 38.0079 27.6521C37.9629 27.663 37.8614 27.6893 37.7405 27.744C37.6747 27.7738 37.3211 27.9295 37.0765 28.332L39.6402 29.8901C39.3958 30.2922 39.0426 30.4476 38.9774 30.4772C38.8571 30.5316 38.7564 30.5576 38.7124 30.5682C38.6181 30.591 38.5433 30.599 38.5217 30.6013C38.4663 30.6071 38.4251 30.608 38.421 30.6081C38.4024 30.6086 38.3974 30.6082 38.4187 30.6085C38.455 30.6091 38.5197 30.611 38.6172 30.6146C38.8088 30.6218 39.0906 30.6345 39.4461 30.6518C40.1553 30.6863 41.1375 30.738 42.2316 30.7973C44.4188 30.9159 47.0421 31.0641 48.7973 31.1632L48.9665 28.168ZM48.9679 28.1681L48.9668 28.168L48.7969 31.1632L48.798 31.1633L48.9679 28.1681ZM48.9714 28.1683L48.9698 28.1682L48.7962 31.1632L48.7977 31.1632L48.9714 28.1683ZM48.9741 28.1684L48.9732 28.1684L48.7959 31.1631L48.7968 31.1632L48.9741 28.1684ZM50.8139 28.2717C50.5615 28.2581 49.8868 28.22 48.97 28.1682L48.8008 31.1634C49.7142 31.215 50.3952 31.2535 50.653 31.2673L50.8139 28.2717ZM57.7772 29.5758C55.3532 28.9927 52.8303 28.38 50.8139 28.2717L50.653 31.2673C52.3331 31.3576 54.5505 31.8852 57.0755 32.4926L57.7772 29.5758ZM68.012 30.8084C66.9251 31.1004 65.4214 31.0716 63.5742 30.7994C61.7528 30.531 59.773 30.0559 57.7772 29.5758L57.0755 32.4926C59.0415 32.9656 61.1573 33.4757 63.1369 33.7674C65.0909 34.0553 67.0936 34.1614 68.7902 33.7057L68.012 30.8084ZM67.7889 30.5075C67.8004 30.7181 67.8069 30.8526 67.8037 30.9688C67.8006 31.0822 67.7889 31.1047 67.797 31.0795C67.8104 31.038 67.851 30.9504 67.9369 30.8711C68.018 30.7961 68.07 30.7929 68.012 30.8084L68.7902 33.7057C69.2178 33.5909 69.6287 33.3926 69.9737 33.0736C70.3234 32.7503 70.5328 32.3698 70.6516 32.0021C70.8597 31.3581 70.8018 30.661 70.7845 30.3443L67.7889 30.5075ZM70.7875 26.883C69.6584 26.9616 68.6238 27.3737 68.0943 28.4043C67.6779 29.2148 67.7694 30.1495 67.7889 30.5075L70.7845 30.3443C70.7705 30.0878 70.7643 29.9389 70.7721 29.8158C70.7795 29.7 70.7953 29.7118 70.7627 29.7753C70.7443 29.8112 70.7166 29.8512 70.6806 29.8874C70.6449 29.9231 70.616 29.94 70.6084 29.944C70.6018 29.9475 70.6985 29.8965 70.9959 29.8758L70.7875 26.883ZM79.2909 25.6166C76.4866 26.1543 73.7554 26.6763 70.7875 26.883L70.9959 29.8758C74.1699 29.6547 77.0714 29.0968 79.8558 28.563L79.2909 25.6166ZM90.5051 24.2455C86.4225 24.2455 82.8005 24.9438 79.2909 25.6166L79.8558 28.563C83.393 27.8848 86.7479 27.2455 90.5051 27.2455V24.2455ZM96.845 24.291C94.736 24.2683 92.619 24.2455 90.5051 24.2455V27.2455C92.6001 27.2455 94.701 27.2681 96.8127 27.2908L96.845 24.291ZM96.8491 24.291L96.8486 24.291L96.8092 27.2908L96.8096 27.2908L96.8491 24.291ZM109.447 24.2462C105.274 24.3815 101.076 24.3365 96.8455 24.291L96.8132 27.2908C101.033 27.3362 105.296 27.3824 109.544 27.2447L109.447 24.2462ZM117.313 15.834C116.033 17.775 114.608 19.9303 113.13 21.6173C112.394 22.4581 111.687 23.132 111.026 23.592C110.357 24.0572 109.836 24.2336 109.447 24.2462L109.544 27.2447C110.727 27.2063 111.809 26.702 112.739 26.0546C113.677 25.402 114.566 24.5315 115.387 23.594C117.024 21.7245 118.563 19.388 119.817 17.486L117.313 15.834ZM119.706 12.4209C119.011 13.2566 118.177 14.525 117.313 15.834L119.817 17.486C120.723 16.1135 121.449 15.0163 122.012 14.3404L119.706 12.4209ZM151.886 6.59954C146.307 6.14956 139.961 5.63355 134.241 6.17152C128.549 6.70686 123.126 8.31343 119.706 12.4209L122.012 14.3404C124.661 11.1586 129.083 9.66985 134.522 9.15834C139.933 8.64945 146.006 9.13508 151.645 9.58983L151.886 6.59954ZM161.02 7.12498C158.413 7.12498 155.302 6.87509 151.886 6.59954L151.645 9.58983C155.024 9.86236 158.267 10.125 161.02 10.125V7.12498ZM195.11 7.12498H161.02V10.125H195.11V7.12498ZM214.246 3.74142C208.015 5.44481 201.839 7.12498 195.11 7.12498V10.125C202.302 10.125 208.856 8.325 215.037 6.63523L214.246 3.74142ZM247.796 4.36881C235.424 -2.09218 224.776 0.862588 214.246 3.74142L215.037 6.63523C225.633 3.73851 235.189 1.16973 246.407 7.02801L247.796 4.36881ZM270.917 11.0759C262.208 11.0759 255.629 8.45981 247.796 4.36881L246.407 7.02801C254.407 11.2063 261.497 14.0759 270.917 14.0759V11.0759ZM274.585 11.0041C273.334 11.0405 272.114 11.0759 270.917 11.0759V14.0759C272.165 14.0759 273.429 14.039 274.673 14.0028L274.585 11.0041ZM282.259 11.0818C279.706 10.8533 277.081 10.9315 274.585 11.0041L274.673 14.0028C277.201 13.9292 279.646 13.8599 281.991 14.0699L282.259 11.0818ZM304.044 25.9903C301.08 23.2093 297.303 19.6644 293.505 16.7491C291.603 15.29 289.666 13.9639 287.792 12.962C285.935 11.9688 284.045 11.2418 282.259 11.0818L281.991 14.0699C283.205 14.1786 284.684 14.7019 286.377 15.6075C288.055 16.5044 289.85 17.7256 291.678 19.1289C295.339 21.9385 299.008 25.3791 301.991 28.1782L304.044 25.9903ZM304.056 26.0021L304.056 26.0013L301.98 28.1673L301.981 28.1681L304.056 26.0021ZM307.477 29.1552C306.536 28.3282 305.378 27.2421 304.045 25.9911L301.992 28.179C303.313 29.418 304.511 30.5419 305.496 31.4081L307.477 29.1552ZM318.649 52.8895C318.649 46.8565 318.464 43.0306 316.863 39.6304C315.272 36.2506 312.352 33.4421 307.477 29.1552L305.496 31.4081C310.456 35.7698 312.867 38.1859 314.148 40.9082C315.421 43.6102 315.649 46.7639 315.649 52.8895H318.649ZM318.565 59.7478C318.606 57.5093 318.649 55.2213 318.649 52.8895H315.649C315.649 55.1888 315.607 57.4492 315.565 59.6918L318.565 59.7478ZM323.766 92.206C318.181 81.7059 318.347 71.3906 318.565 59.7478L315.565 59.6918C315.349 71.2495 315.117 82.3331 321.117 93.6148L323.766 92.206ZM340.177 127.175C335.388 115.306 329.791 103.533 323.766 92.206L321.117 93.6148C327.1 104.863 332.651 116.54 337.395 128.298L340.177 127.175ZM344.855 137.115C343.182 133.805 341.542 130.559 340.177 127.175L337.395 128.298C338.816 131.818 340.513 135.176 342.177 138.468L344.855 137.115ZM351.914 154.145C350.341 147.959 347.553 142.455 344.855 137.115L342.177 138.468C344.898 143.852 347.528 149.069 349.007 154.885L351.914 154.145ZM353.155 191.278C354.077 179.026 355.038 166.423 351.914 154.145L349.007 154.885C351.989 166.608 351.092 178.714 350.164 191.053L353.155 191.278ZM353.146 191.364L353.147 191.363L350.173 190.967L350.173 190.968L353.146 191.364ZM352.272 208.803C352.272 203.034 352.71 197.196 353.155 191.278L350.164 191.053C349.72 196.951 349.272 202.902 349.272 208.803H352.272ZM352.267 212.268C352.269 211.122 352.272 209.967 352.272 208.803H349.272C349.272 209.963 349.269 211.115 349.267 212.261L352.267 212.268ZM352.267 212.265V212.264H349.267V212.265H352.267ZM356.933 252.273C352.219 238.977 352.235 226.315 352.267 212.268L349.267 212.261C349.235 226.246 349.192 239.418 354.106 253.276L356.933 252.273ZM359.867 294.51C360.657 280.458 361.534 265.247 356.933 252.273L354.106 253.276C358.467 265.573 357.67 280.138 356.872 294.341L359.867 294.51ZM359.869 294.426V294.425H356.869V294.426H359.869ZM359.869 294.426V294.426H356.869V294.426H359.869ZM359.869 294.427V294.426H356.869V294.427H359.869ZM359.277 309.916C359.277 305.019 359.567 299.845 359.867 294.511L356.872 294.343C356.573 299.659 356.277 304.919 356.277 309.916H359.277ZM352.078 308.998C352.151 310.028 352.547 311.014 353.053 311.807C353.551 312.589 354.247 313.326 355.06 313.749C355.89 314.182 357.181 314.403 358.201 313.399C359.032 312.582 359.277 311.285 359.277 309.916H356.277C356.277 310.469 356.222 310.837 356.159 311.065C356.095 311.297 356.042 311.315 356.097 311.261C356.178 311.181 356.313 311.12 356.444 311.115C356.539 311.112 356.545 311.141 356.446 311.089C356.233 310.978 355.892 310.679 355.583 310.194C355.281 309.721 355.1 309.21 355.07 308.786L352.078 308.998ZM354.95 321.161C354.887 316.769 354.825 312.396 354.825 309.776C354.825 309.122 354.829 308.585 354.838 308.19C354.847 307.734 354.862 307.592 354.857 307.621C354.854 307.638 354.844 307.692 354.823 307.764C354.817 307.783 354.748 308.034 354.538 308.282C354.421 308.42 354.152 308.683 353.704 308.776C353.207 308.879 352.791 308.712 352.538 308.532C352.316 308.375 352.193 308.197 352.143 308.118C352.084 308.025 352.048 307.945 352.029 307.901C351.992 307.812 351.975 307.744 351.97 307.725C351.963 307.698 351.96 307.682 351.96 307.681C351.96 307.679 351.963 307.698 351.969 307.745C351.995 307.942 352.031 308.34 352.078 308.998L355.07 308.786C355.024 308.13 354.982 307.652 354.944 307.357C354.934 307.282 354.922 307.201 354.908 307.124C354.899 307.08 354.87 306.918 354.798 306.745C354.776 306.693 354.737 306.607 354.675 306.509C354.621 306.424 354.495 306.243 354.271 306.084C354.015 305.902 353.596 305.734 353.095 305.838C352.645 305.931 352.373 306.197 352.253 306.338C352.037 306.592 351.963 306.855 351.952 306.891C351.925 306.981 351.91 307.057 351.903 307.101C351.859 307.35 351.846 307.758 351.838 308.126C351.829 308.553 351.825 309.114 351.825 309.776C351.825 312.422 351.888 316.822 351.95 321.204L354.95 321.161ZM354.95 321.183V321.182H351.95V321.183H354.95ZM354.95 321.185V321.183H351.95V321.185H354.95ZM354.95 321.187V321.185H351.95V321.187H354.95ZM355.074 332.597C355.074 329.95 355.012 325.548 354.95 321.166L351.95 321.208C352.012 325.602 352.074 329.976 352.074 332.597H355.074ZM351.909 369.287C353.483 357.135 355.074 344.869 355.074 332.597H352.074C352.074 344.642 350.512 356.716 348.934 368.902L351.909 369.287ZM349.538 419.34C347.579 402.771 349.726 386.139 351.909 369.287L348.934 368.902C346.759 385.688 344.549 402.692 346.558 419.692L349.538 419.34ZM355.738 444.111C352.502 436.29 350.53 427.739 349.538 419.34L346.558 419.692C347.576 428.303 349.604 437.131 352.966 445.258L355.738 444.111ZM354.989 481.325C359.356 468.893 360.923 456.645 355.738 444.111L352.966 445.258C357.76 456.845 356.396 468.268 352.159 480.331L354.989 481.325ZM352.643 487.658C353.461 485.505 354.267 483.382 354.989 481.325L352.159 480.331C351.451 482.346 350.659 484.433 349.839 486.594L352.643 487.658ZM348.983 525.486C345.908 519.705 345.599 513.431 346.688 506.97C347.782 500.48 350.26 493.937 352.643 487.658L349.839 486.594C347.476 492.818 344.881 499.639 343.73 506.471C342.574 513.331 342.847 520.337 346.334 526.894L348.983 525.486ZM347.571 533.592C348.216 533.393 348.916 533.149 349.478 532.766C350.122 532.326 350.621 531.678 350.743 530.77C350.849 529.985 350.645 529.171 350.356 528.393C350.057 527.587 349.591 526.628 348.983 525.486L346.334 526.894C346.927 528.009 347.316 528.825 347.544 529.438C347.782 530.078 347.776 530.326 347.77 530.369C347.77 530.372 347.771 530.36 347.779 530.34C347.786 530.32 347.797 530.299 347.809 530.28C347.835 530.243 347.844 530.248 347.787 530.288C347.633 530.392 347.324 530.529 346.685 530.726L347.571 533.592ZM348.615 532.401L348.625 532.26L345.631 532.059L345.622 532.201L348.615 532.401ZM348.736 534.742C348.524 533.79 348.57 533.068 348.615 532.402L345.622 532.199C345.574 532.913 345.497 533.996 345.807 535.393L348.736 534.742ZM349.344 536.179C349.171 535.799 349.023 535.473 348.909 535.201C348.852 535.065 348.809 534.956 348.777 534.869C348.744 534.776 348.735 534.739 348.736 534.742L345.807 535.393C345.878 535.711 346.019 536.068 346.143 536.363C346.278 536.683 346.445 537.051 346.612 537.419L349.344 536.179ZM350.024 542.553C350.763 541.962 350.837 541.098 350.823 540.622C350.807 540.098 350.673 539.551 350.524 539.075C350.222 538.109 349.723 537.016 349.344 536.179L346.612 537.419C347.013 538.303 347.425 539.216 347.66 539.97C347.78 540.353 347.821 540.594 347.825 540.712C347.83 540.881 347.767 540.516 348.15 540.21L350.024 542.553ZM349.427 547.085C349.377 546.049 349.331 545.013 349.441 544.109C349.557 543.165 349.804 542.729 350.024 542.553L348.15 540.21C346.986 541.142 346.605 542.583 346.463 543.745C346.316 544.948 346.383 546.247 346.431 547.23L349.427 547.085ZM349.473 548.439C349.473 548.02 349.45 547.545 349.427 547.085L346.431 547.23C346.454 547.711 346.473 548.108 346.473 548.439H349.473ZM350.208 556.917C349.832 554.006 349.473 551.207 349.473 548.439H346.473C346.473 551.433 346.861 554.424 347.233 557.302L350.208 556.917ZM350.2 556.863L350.2 556.863L347.241 557.356L347.241 557.357L350.2 556.863ZM350.958 564.954C350.897 562.242 350.546 559.533 350.208 556.918L347.233 557.302C347.574 559.945 347.902 562.495 347.959 565.022L350.958 564.954ZM351.015 568.548C351 567.356 350.986 566.155 350.958 564.954L347.959 565.022C347.986 566.204 348 567.39 348.015 568.585L351.015 568.548ZM351.846 581.827C351.126 577.506 351.07 573.092 351.015 568.548L348.015 568.584C348.069 573.088 348.123 577.734 348.887 582.321L351.846 581.827ZM356.159 644.598C356.159 623.928 355.268 602.36 351.846 581.827L348.887 582.321C352.27 602.618 353.159 623.998 353.159 644.598H356.159ZM353.145 666.105C354.629 659.18 356.159 652.063 356.159 644.598H353.159C353.159 651.695 351.706 658.504 350.212 665.477L353.145 666.105ZM350.216 686.818C350.216 679.806 351.657 673.052 353.145 666.105L350.212 665.477C348.734 672.374 347.216 679.437 347.216 686.818H350.216ZM350.216 705.554V686.818H347.216V705.554H350.216ZM352.335 727.488C351.265 720.12 350.216 712.881 350.216 705.554H347.216C347.216 713.133 348.301 720.587 349.366 727.919L352.335 727.488ZM354.089 741.411C353.678 736.729 353.003 732.083 352.335 727.488L349.366 727.919C350.036 732.528 350.698 737.09 351.101 741.673L354.089 741.411ZM354.693 764.915C354.736 757.13 354.779 749.259 354.089 741.411L351.101 741.673C351.777 749.359 351.736 757.09 351.694 764.899L354.693 764.915ZM354.693 764.908V764.907H351.693V764.908H354.693ZM354.693 764.908V764.908H351.693V764.908H354.693ZM354.693 764.909V764.908H351.693V764.909H354.693ZM354.673 770.555C354.673 768.678 354.683 766.8 354.693 764.917L351.694 764.901C351.683 766.782 351.673 768.669 351.673 770.555H354.673ZM354.698 771.707C354.684 771.232 354.673 770.85 354.673 770.555H351.673C351.673 770.903 351.686 771.336 351.699 771.794L354.698 771.707ZM352.526 781.606C353.314 781.031 353.772 780.177 354.056 779.38C354.346 778.566 354.51 777.649 354.605 776.758C354.795 774.977 354.737 773.038 354.698 771.707L351.699 771.794C351.739 773.16 351.787 774.895 351.622 776.439C351.54 777.21 351.41 777.868 351.23 778.374C351.043 778.898 350.855 779.111 350.757 779.183L352.526 781.606ZM353.447 781.306C353.444 781.151 353.444 780.775 353.363 780.421C353.28 780.061 353.019 779.324 352.19 778.998L351.094 781.791C350.851 781.695 350.674 781.53 350.566 781.369C350.471 781.228 350.444 781.114 350.439 781.092C350.433 781.066 350.436 781.071 350.44 781.128C350.444 781.185 350.445 781.251 350.447 781.357L353.447 781.306ZM353.455 781.544C353.451 781.512 353.449 781.456 353.447 781.306L350.447 781.357C350.449 781.472 350.451 781.674 350.473 781.87L353.455 781.544ZM353.391 781.34C353.426 781.418 353.441 781.479 353.448 781.507C353.454 781.536 353.456 781.551 353.455 781.544L350.473 781.87C350.489 782.024 350.528 782.285 350.65 782.558L353.391 781.34ZM353.539 784.683C353.605 784.251 353.691 783.706 353.707 783.171C353.723 782.632 353.675 781.979 353.391 781.34L350.65 782.558C350.678 782.622 350.717 782.769 350.708 783.082C350.698 783.4 350.646 783.758 350.574 784.23L353.539 784.683ZM353.402 785.94C353.402 785.601 353.458 785.213 353.539 784.683L350.574 784.23C350.5 784.709 350.402 785.331 350.402 785.94H353.402ZM353.995 791.234C353.637 789.982 353.402 787.368 353.402 785.94H350.402C350.402 787.489 350.642 790.42 351.11 792.058L353.995 791.234ZM354.115 799.204C354.811 796.721 354.673 793.608 353.995 791.234L351.11 792.058C351.661 793.984 351.75 796.525 351.226 798.395L354.115 799.204ZM349.531 818.54C350.806 812.024 352.325 805.597 354.115 799.204L351.226 798.395C349.414 804.867 347.877 811.372 346.587 817.964L349.531 818.54ZM349.412 828.124C349.151 824.77 348.919 821.669 349.531 818.54L346.587 817.964C345.884 821.558 346.165 825.064 346.421 828.357L349.412 828.124ZM349.677 832.458C349.635 830.987 349.522 829.533 349.412 828.124L346.421 828.357C346.532 829.777 346.639 831.158 346.678 832.543L349.677 832.458ZM350.718 842.348C350.143 839.111 349.769 835.729 349.677 832.458L346.678 832.543C346.775 835.978 347.166 839.508 347.765 842.873L350.718 842.348ZM350.914 849.322C351.032 847.148 351.162 844.845 350.718 842.348L347.765 842.873C348.139 844.979 348.038 846.947 347.918 849.16L350.914 849.322ZM350.916 849.242V849.241H347.916V849.242H350.916ZM350.801 852.485C350.801 851.421 350.856 850.388 350.914 849.323L347.918 849.16C347.861 850.214 347.801 851.327 347.801 852.485H350.801ZM350.801 854.632C350.801 853.916 350.801 853.2 350.801 852.485H347.801C347.801 853.201 347.801 853.917 347.801 854.633L350.801 854.632ZM350.802 856.932L350.801 854.632L347.801 854.633L347.802 856.933L350.802 856.932ZM350.802 856.933V856.933H347.802V856.933H350.802ZM350.802 856.934V856.933H347.802V856.934H350.802ZM350.178 899.88C350.816 885.53 350.809 871.22 350.802 856.933L347.802 856.935C347.809 871.232 347.816 885.475 347.181 899.747L350.178 899.88ZM349.395 906.88C349.726 904.619 350.072 902.269 350.178 899.88L347.181 899.747C347.083 901.959 346.762 904.159 346.427 906.445L349.395 906.88ZM348.613 914.861C348.613 912.233 348.993 909.621 349.395 906.88L346.427 906.445C346.03 909.15 345.613 911.978 345.613 914.861H348.613ZM349.653 925.885C348.984 922.204 348.613 918.584 348.613 914.861H345.613C345.613 918.788 346.004 922.588 346.701 926.422L349.653 925.885ZM351.854 933.646C350.961 930.965 350.113 928.412 349.653 925.885L346.701 926.422C347.206 929.196 348.128 931.954 349.008 934.594L351.854 933.646ZM354.424 948.464C355.109 943.325 353.396 938.271 351.854 933.646L349.008 934.594C350.598 939.364 352.027 943.738 351.45 948.068L354.424 948.464ZM350.046 958.303C350.91 956.928 351.897 955.196 352.715 953.472C353.517 951.782 354.223 949.966 354.424 948.464L351.45 948.068C351.314 949.086 350.78 950.553 350.005 952.185C349.247 953.782 348.321 955.41 347.506 956.706L350.046 958.303ZM350.02 961.822C350.02 960.323 350.053 959.025 350.257 957.74L347.294 957.269C347.05 958.803 347.02 960.301 347.02 961.822H350.02ZM350.581 966.849C350.286 965.052 350.02 963.411 350.02 961.822H347.02C347.02 963.698 347.334 965.586 347.621 967.335L350.581 966.849ZM350.713 976.215C351.613 972.977 351.051 969.703 350.581 966.849L347.621 967.335C348.111 970.312 348.515 972.918 347.823 975.412L350.713 976.215ZM349.55 981.095C349.914 979.433 350.268 977.817 350.713 976.215L347.823 975.412C347.352 977.108 346.981 978.805 346.62 980.454L349.55 981.095ZM349.549 981.102L349.549 981.1L346.621 980.449L346.62 980.451L349.549 981.102ZM346.912 990.354C348.209 987.241 348.894 984.095 349.55 981.097L346.619 980.456C345.955 983.491 345.32 986.375 344.143 989.2L346.912 990.354ZM347.861 1015.59C346.952 1011.6 345.936 1007.14 345.544 1002.7C345.152 998.256 345.4 993.984 346.912 990.354L344.143 989.2C342.365 993.467 342.143 998.294 342.556 1002.96C342.969 1007.64 344.034 1012.3 344.936 1016.25L347.861 1015.59ZM347.877 1015.65L347.861 1015.58L344.936 1016.25L344.952 1016.32L347.877 1015.65ZM349.399 1043.38C350.568 1034.07 349.955 1024.76 347.877 1015.65L344.952 1016.32C346.959 1025.12 347.544 1034.07 346.422 1043.01L349.399 1043.38ZM348.179 1051.87C348.608 1049.06 349.04 1046.24 349.399 1043.38L346.422 1043.01C346.069 1045.82 345.643 1048.6 345.213 1051.41L348.179 1051.87ZM346.522 1064.33C346.912 1060.16 347.541 1056.04 348.179 1051.87L345.213 1051.41C344.578 1055.57 343.935 1059.78 343.535 1064.06L346.522 1064.33ZM345.973 1087.19C345.886 1079.52 345.803 1072.05 346.522 1064.33L343.535 1064.06C342.799 1071.95 342.887 1079.58 342.973 1087.22L345.973 1087.19ZM346.03 1094.78C346.03 1092.23 346.001 1089.7 345.973 1087.19L342.973 1087.22C343.002 1089.73 343.03 1092.25 343.03 1094.78H346.03ZM345.22 1103.14C345.785 1100.24 346.03 1097.36 346.03 1094.78H343.03C343.03 1097.17 342.802 1099.86 342.275 1102.57L345.22 1103.14ZM342.444 1103.6C342.811 1104.24 343.025 1105.28 343.091 1106.66C343.155 1108 343.074 1109.45 342.995 1110.84L345.99 1111.01C346.067 1109.66 346.161 1108.04 346.087 1106.51C346.016 1105.02 345.779 1103.4 345.051 1102.12L342.444 1103.6ZM342.995 1110.84C342.946 1111.69 342.897 1112.54 342.897 1113.26H345.897C345.897 1112.64 345.939 1111.89 345.99 1111.01L342.995 1110.84ZM342.897 1113.26C342.897 1114.67 342.719 1116.01 342.522 1117.47L345.495 1117.87C345.688 1116.43 345.897 1114.9 345.897 1113.26H342.897ZM342.522 1117.47C342.326 1118.92 342.112 1120.5 342.112 1122.2H345.112C345.112 1120.73 345.296 1119.35 345.495 1117.87L342.522 1117.47ZM342.112 1122.2C342.112 1123.53 342.156 1124.88 342.199 1126.21L345.198 1126.12C345.154 1124.77 345.112 1123.47 345.112 1122.2H342.112ZM342.199 1126.21C342.303 1129.42 342.4 1132.52 341.955 1135.41L344.92 1135.87C345.415 1132.65 345.3 1129.27 345.198 1126.12L342.199 1126.21ZM341.955 1135.41C341.488 1138.45 340.743 1141.48 339.976 1144.59L342.889 1145.31C343.65 1142.22 344.429 1139.06 344.92 1135.87L341.955 1135.41ZM339.976 1144.59C338.72 1149.69 337.4 1155.01 337.4 1160.51H340.4C340.4 1155.44 341.617 1150.47 342.889 1145.31L339.976 1144.59ZM337.4 1160.51C337.4 1165.61 338.213 1170.26 339.055 1175.1L342.01 1174.59C341.163 1169.71 340.4 1165.31 340.4 1160.51H337.4ZM339.055 1175.1L339.08 1175.25L342.036 1174.73L342.01 1174.59L339.055 1175.1ZM339.08 1175.25C340.35 1182.55 340.815 1189.8 341.286 1197.33L344.28 1197.15C343.81 1189.63 343.339 1182.22 342.036 1174.73L339.08 1175.25ZM341.286 1197.33C341.314 1197.79 341.336 1198.26 341.358 1198.75L344.355 1198.62C344.333 1198.13 344.31 1197.63 344.28 1197.15L341.286 1197.33ZM341.358 1198.75C341.457 1200.97 341.559 1203.69 342.639 1206.06L345.37 1204.82C344.573 1203.07 344.46 1200.96 344.355 1198.62L341.358 1198.75ZM342.639 1206.06C343.03 1206.92 343.631 1207.64 344.069 1208.17L346.388 1206.27C345.901 1205.68 345.57 1205.26 345.37 1204.82L342.639 1206.06ZM344.069 1208.17C344.665 1208.9 345.002 1209.34 345.144 1209.81L348.013 1208.93C347.667 1207.8 346.903 1206.9 346.388 1206.27L344.069 1208.17ZM345.144 1209.81C346.516 1214.3 346.509 1219.57 346.489 1224.98L349.489 1224.99C349.509 1219.7 349.543 1213.94 348.013 1208.93L345.144 1209.81ZM346.489 1224.98C346.479 1227.67 346.468 1230.39 346.653 1232.95L349.645 1232.73C349.47 1230.3 349.479 1227.7 349.489 1224.99L346.489 1224.98ZM346.653 1232.95C346.979 1237.48 346.705 1242.1 346.422 1246.85L349.417 1247.02C349.698 1242.32 349.988 1237.49 349.645 1232.73L346.653 1232.95ZM346.422 1246.85C346.232 1250.03 346.038 1253.27 346.038 1256.48H349.038C349.038 1253.37 349.226 1250.22 349.417 1247.02L346.422 1246.85ZM346.038 1256.48V1281.22H349.038V1256.48H346.038ZM346.038 1281.22C346.038 1282.63 346.033 1284.04 346.029 1285.46L349.029 1285.47C349.033 1284.05 349.038 1282.63 349.038 1281.22H346.038ZM346.029 1285.46C345.993 1296.34 345.951 1307.7 348.028 1318.5L350.974 1317.93C348.962 1307.47 348.993 1296.41 349.029 1285.47L346.029 1285.46ZM348.028 1318.5C348.657 1321.77 348.337 1325.71 347.993 1329.81L350.982 1330.06C351.317 1326.08 351.697 1321.69 350.974 1317.93L348.028 1318.5ZM347.993 1329.81C347.803 1332.07 347.609 1334.36 347.609 1336.49H350.609C350.609 1334.51 350.79 1332.35 350.982 1330.06L347.993 1329.81ZM347.609 1336.49V1350.54H350.609V1336.49H347.609ZM347.609 1350.54C347.609 1351.5 347.62 1352.45 347.632 1353.39L350.631 1353.36C350.62 1352.41 350.609 1351.47 350.609 1350.54H347.609ZM347.632 1353.39C347.688 1358.1 347.731 1362.56 346.49 1366.83L349.371 1367.67C350.757 1362.9 350.687 1357.99 350.631 1353.36L347.632 1353.39ZM346.49 1366.83C345.127 1371.53 344.107 1376.44 343.645 1381.29L346.632 1381.57C347.073 1376.94 348.05 1372.22 349.371 1367.67L346.49 1366.83ZM343.645 1381.29C343.496 1382.86 343.237 1384.45 342.967 1386.1L345.928 1386.59C346.195 1384.95 346.471 1383.26 346.632 1381.57L343.645 1381.29ZM342.967 1386.1C342.573 1388.52 342.155 1391.07 342.112 1393.62L345.112 1393.67C345.15 1391.37 345.528 1389.04 345.928 1386.59L342.967 1386.1ZM342.112 1393.62C342.065 1396.45 341.894 1397.66 341.484 1398.53C341.073 1399.41 340.368 1400.08 338.619 1401.67L340.637 1403.89C342.239 1402.43 343.479 1401.34 344.199 1399.81C344.92 1398.27 345.065 1396.44 345.112 1393.67L342.112 1393.62ZM338.619 1401.67C338.288 1401.97 337.926 1402.3 337.534 1402.66L339.569 1404.87C339.952 1404.51 340.306 1404.19 340.637 1403.89L338.619 1401.67ZM337.534 1402.66C336.448 1403.66 333.62 1405.84 330.626 1407.55C329.131 1408.4 327.657 1409.09 326.381 1409.48C325.038 1409.88 324.23 1409.84 323.837 1409.65L322.553 1412.36C323.994 1413.05 325.73 1412.8 327.243 1412.35C328.824 1411.88 330.519 1411.06 332.11 1410.16C335.289 1408.35 338.305 1406.03 339.569 1404.87L337.534 1402.66ZM323.837 1409.65C316.036 1405.96 308.393 1404.41 300.033 1409.13L301.509 1411.75C308.663 1407.7 315.182 1408.87 322.553 1412.36L323.837 1409.65ZM300.033 1409.13C288.06 1415.9 274.685 1417.62 260.814 1419.2L261.154 1422.18C274.959 1420.61 288.931 1418.86 301.509 1411.75L300.033 1409.13ZM260.814 1419.2C256.428 1419.7 252.08 1420.43 247.78 1421.15L248.275 1424.11C252.588 1423.39 256.859 1422.67 261.154 1422.18L260.814 1419.2ZM247.78 1421.15C242.737 1421.99 237.759 1422.83 232.748 1423.3L233.03 1426.29C238.166 1425.8 243.249 1424.95 248.275 1424.11L247.78 1421.15ZM232.748 1423.3C222.718 1424.25 211.259 1422.05 201.001 1420.07L200.432 1423.01C210.584 1424.97 222.49 1427.28 233.03 1426.29L232.748 1423.3ZM201.001 1420.07L200.235 1419.92L199.667 1422.86L200.433 1423.01L201.001 1420.07ZM200.236 1419.92C198.47 1419.58 196.69 1419.22 194.895 1418.86L194.307 1421.8C196.101 1422.16 197.89 1422.52 199.667 1422.86L200.236 1419.92ZM194.895 1418.86C185.045 1416.9 174.724 1414.83 164.614 1414.83V1417.83C174.375 1417.83 184.4 1419.83 194.308 1421.8L194.895 1418.86ZM164.614 1414.83C157.194 1414.83 149.503 1415.59 142.087 1416.33L142.383 1419.31C149.828 1418.58 157.368 1417.83 164.614 1417.83V1414.83ZM142.087 1416.33C140.462 1416.49 138.849 1416.65 137.251 1416.8L137.532 1419.79C139.139 1419.63 140.759 1419.47 142.383 1419.31L142.087 1416.33ZM137.251 1416.8C132.915 1417.21 128.53 1417.34 124.094 1417.48L124.187 1420.48C128.606 1420.34 133.086 1420.21 137.532 1419.79L137.251 1416.8ZM124.094 1417.48C120.668 1417.59 117.211 1417.69 113.774 1417.93L113.98 1420.92C117.351 1420.69 120.751 1420.59 124.187 1420.48L124.094 1417.48ZM113.774 1417.93C104.148 1418.59 95.1498 1416.27 85.8668 1413.86L85.1121 1416.76C94.3246 1419.15 103.789 1421.63 113.98 1420.92L113.774 1417.93ZM85.8668 1413.86C79.829 1412.29 73.6656 1410.68 67.2798 1409.95L66.9402 1412.93C73.0809 1413.63 79.0406 1415.18 85.112 1416.76L85.8668 1413.86ZM67.2798 1409.95C59.3551 1409.05 51.4735 1408.09 43.5757 1407.03L43.1792 1410.01C51.0985 1411.06 58.9993 1412.03 66.9402 1412.93L67.2798 1409.95ZM43.5757 1407.03C41.5482 1406.76 39.3708 1407.09 37.4638 1407.36L37.8915 1410.33C39.9003 1410.04 41.6424 1409.8 43.1792 1410.01L43.5757 1407.03ZM37.4638 1407.36C36.0003 1407.57 34.6706 1407.76 33.4307 1407.76V1410.76C34.9247 1410.76 36.474 1410.54 37.8915 1410.33L37.4638 1407.36ZM33.4307 1407.76C29.2008 1407.76 26.1264 1407.27 24.0879 1405.92C22.1891 1404.66 20.9127 1402.45 20.7953 1398.23L17.7965 1398.31C17.9309 1403.15 19.4569 1406.44 22.4301 1408.42C25.2635 1410.29 29.1305 1410.76 33.4307 1410.76V1407.76ZM20.7953 1398.23C20.6623 1393.44 20.9399 1388.34 21.2186 1383.25L18.2231 1383.08C17.9458 1388.15 17.6594 1393.38 17.7965 1398.31L20.7953 1398.23ZM21.2186 1383.25C21.3569 1380.72 21.4952 1378.19 21.5803 1375.72L18.582 1375.62C18.4982 1378.05 18.3617 1380.55 18.2231 1383.08L21.2186 1383.25ZM21.5803 1375.72C21.7465 1370.9 22.3718 1366.01 23.0066 1361.05L20.0309 1360.67C19.3993 1365.6 18.7539 1370.63 18.582 1375.62L21.5803 1375.72ZM23.0066 1361.05C23.3531 1358.35 23.7021 1355.63 23.9731 1352.92L20.988 1352.62C20.7218 1355.28 20.3783 1357.96 20.0309 1360.67L23.0066 1361.05ZM23.9731 1352.92C25.0723 1341.92 23.2056 1332.12 20.848 1321.43L17.9183 1322.07C20.2718 1332.75 22.0356 1342.14 20.988 1352.62L23.9731 1352.92ZM20.848 1321.43C20.0154 1317.65 19.114 1313.93 18.2224 1310.25L15.3069 1310.96C16.1996 1314.64 17.0935 1318.33 17.9183 1322.07L20.848 1321.43ZM18.2224 1310.25C15.4108 1298.66 12.7008 1287.46 12.3317 1275.46L9.33314 1275.55C9.71337 1287.91 12.5059 1299.41 15.3069 1310.96L18.2224 1310.25ZM12.3317 1275.46C12.0322 1265.73 12.0624 1255.7 13.323 1246.12L10.3486 1245.73C9.05617 1255.55 9.0321 1265.77 9.33314 1275.55L12.3317 1275.46ZM13.323 1246.12C13.649 1243.64 13.7303 1241.11 13.8102 1238.65L10.8118 1238.55C10.731 1241.04 10.652 1243.42 10.3486 1245.73L13.323 1246.12ZM13.8102 1238.65C13.929 1235 14.0478 1231.53 14.8616 1228.27L11.9511 1227.55C11.0463 1231.16 10.9286 1234.96 10.8118 1238.55L13.8102 1238.65ZM14.8616 1228.27C16.2412 1222.75 15.8601 1216.74 15.5125 1211.07L12.5182 1211.26C12.8721 1217.03 13.198 1222.56 11.9511 1227.55L14.8616 1228.27ZM15.5125 1211.07C15.2689 1207.1 15.0376 1203.28 15.3374 1199.68L12.3478 1199.43C12.0267 1203.28 12.2773 1207.32 12.5182 1211.26L15.5125 1211.07ZM15.3374 1199.68C15.6869 1195.48 16.8016 1191.48 17.9631 1187.33L15.0741 1186.52C13.9246 1190.63 12.7248 1194.9 12.3478 1199.43L15.3374 1199.68ZM17.9631 1187.33C19.3447 1182.39 20.7959 1177.24 20.7959 1171.67H17.7959C17.7959 1176.76 16.4723 1181.53 15.0741 1186.52L17.9631 1187.33ZM20.7959 1171.67C20.7959 1166.29 19.9888 1160.95 19.2053 1155.75L16.2387 1156.19C17.028 1161.43 17.7959 1166.55 17.7959 1171.67H20.7959ZM19.2053 1155.75C18.4182 1150.52 17.6548 1145.43 17.6548 1140.35H14.6548C14.6548 1145.69 15.4575 1151 16.2387 1156.19L19.2053 1155.75ZM17.6548 1140.35C17.6548 1137.11 17.6807 1133.86 17.7067 1130.62L14.7068 1130.59C14.6808 1133.84 14.6548 1137.09 14.6548 1140.35H17.6548ZM17.7067 1130.62C17.7974 1119.28 17.8898 1107.88 16.8634 1096.59L13.8757 1096.86C14.8864 1107.98 14.7977 1119.23 14.7068 1130.59L17.7067 1130.62ZM15.8471 1098.15C15.8677 1098.14 15.8877 1098.13 15.9127 1098.13L14.9655 1095.28C14.9443 1095.29 14.9179 1095.29 14.892 1095.3L15.8471 1098.15ZM13.1031 1094.66C13.4235 1095.51 13.7342 1096.34 14.0174 1097.18L16.8608 1096.22C16.5582 1095.32 16.229 1094.45 15.9114 1093.6L13.1031 1094.66ZM10.8901 1085.45C10.9609 1088.99 12.0806 1091.94 13.1031 1094.66L15.9114 1093.6C14.8714 1090.83 13.9486 1088.34 13.8895 1085.39L10.8901 1085.45ZM13.369 1073.52C12.1062 1077.16 10.7988 1080.89 10.8901 1085.45L13.8895 1085.39C13.8104 1081.43 14.9254 1078.18 16.2032 1074.5L13.369 1073.52ZM15.0389 1068.25C14.561 1070.08 13.9694 1071.79 13.369 1073.52L16.2032 1074.5C16.7988 1072.78 17.4293 1070.97 17.9416 1069.01L15.0389 1068.25ZM16.5143 1052.29C17.5272 1057.47 16.4426 1062.87 15.0389 1068.25L17.9416 1069.01C19.3504 1063.61 20.6137 1057.62 19.4585 1051.72L16.5143 1052.29ZM17.977 1028.24C14.5812 1036.81 14.7926 1043.49 16.5143 1052.29L19.4585 1051.72C17.8025 1043.25 17.6535 1037.2 20.7664 1029.34L17.977 1028.24ZM18.1117 1023.89C18.3431 1025.66 18.4845 1026.95 17.977 1028.24L20.7664 1029.34C21.6034 1027.22 21.3029 1025.15 21.0862 1023.5L18.1117 1023.89ZM17.8717 1021.08C17.8717 1022.08 18.0006 1023.05 18.1117 1023.89L21.0862 1023.5C20.9709 1022.62 20.8717 1021.85 20.8717 1021.08H17.8717ZM18.196 1016.19C18.0363 1017.76 17.8717 1019.36 17.8717 1021.08H20.8717C20.8717 1019.53 21.0188 1018.08 21.1806 1016.49L18.196 1016.19ZM18.1949 1016.2L18.1948 1016.2L21.1818 1016.48L21.1818 1016.48L18.1949 1016.2ZM18.3489 1014.63C18.3013 1015.16 18.2489 1015.67 18.1961 1016.19L21.1806 1016.49C21.2332 1015.98 21.2873 1015.45 21.3365 1014.9L18.3489 1014.63ZM17.6493 1007.07C18.0771 1009.3 18.5358 1012.58 18.3489 1014.63L21.3365 1014.9C21.5655 1012.39 21.0245 1008.74 20.5954 1006.51L17.6493 1007.07ZM17.2163 1003.3C17.306 1004.49 17.4015 1005.78 17.6493 1007.07L20.5954 1006.51C20.3854 1005.41 20.2996 1004.3 20.2078 1003.08L17.2163 1003.3ZM16.6697 999.145C16.9985 1000.46 17.1037 1001.81 17.2163 1003.3L20.2078 1003.08C20.0983 1001.62 19.981 1000.02 19.5801 998.418L16.6697 999.145ZM17.1919 986.365C16.6275 988.171 16.2804 990.464 16.1763 992.716C16.0726 994.962 16.2051 997.287 16.6697 999.145L19.5801 998.418C19.2111 996.942 19.0771 994.933 19.1731 992.854C19.2689 990.781 19.5879 988.756 20.0554 987.26L17.1919 986.365ZM18.3704 977.836C18.3704 980.526 17.9763 983.855 17.1919 986.365L20.0554 987.26C20.9524 984.39 21.3704 980.745 21.3704 977.836H18.3704ZM16.256 960.563C17.3303 966.397 18.3704 972.069 18.3704 977.836H21.3704C21.3704 971.75 20.2724 965.809 19.2064 960.02L16.256 960.563ZM16.2572 960.569L16.2575 960.57L19.205 960.012L19.2047 960.01L16.2572 960.569ZM15.9011 958.627C16.0185 959.273 16.1373 959.918 16.2558 960.561L19.2062 960.018C19.0876 959.374 18.9694 958.732 18.8527 958.09L15.9011 958.627ZM18.3994 956.829C18.0367 956.833 17.7174 956.84 17.5096 956.847C17.4131 956.85 17.3202 956.854 17.259 956.858C17.2492 956.859 17.2068 956.862 17.1581 956.867C17.1438 956.869 17.117 956.873 17.0838 956.878C17.0675 956.881 16.9781 956.896 16.8691 956.932C16.8318 956.944 16.6702 956.996 16.4927 957.117C16.4276 957.161 15.6142 957.723 15.8874 958.745C15.9975 959.156 16.2468 959.402 16.3783 959.511C16.5176 959.627 16.6471 959.691 16.7142 959.722C16.8495 959.784 16.9631 959.811 17.0004 959.819C17.0909 959.84 17.1636 959.848 17.1816 959.849C17.2114 959.853 17.2356 959.854 17.2492 959.855C17.2768 959.857 17.2996 959.857 17.3112 959.858C17.3363 959.858 17.36 959.858 17.3769 959.858V956.858C17.3696 956.858 17.3747 956.858 17.3866 956.859C17.3916 956.859 17.4092 956.859 17.4328 956.861C17.4445 956.861 17.467 956.863 17.4955 956.866C17.5122 956.868 17.5839 956.875 17.6737 956.896C17.7107 956.904 17.824 956.931 17.9591 956.993C18.0262 957.023 18.1556 957.088 18.2948 957.203C18.4262 957.312 18.6755 957.558 18.7856 957.97C19.0588 958.992 18.2454 959.553 18.1805 959.597C18.0031 959.718 17.8418 959.77 17.8047 959.782C17.6963 959.818 17.6078 959.832 17.5927 959.835C17.5607 959.84 17.5354 959.844 17.5229 959.845C17.4971 959.848 17.4778 959.85 17.4723 959.85C17.4644 959.851 17.4592 959.851 17.4579 959.852C17.456 959.852 17.4673 959.851 17.4981 959.85C17.5261 959.848 17.5631 959.847 17.6087 959.846C17.7921 959.84 18.0881 959.832 18.4288 959.829L18.3994 956.829ZM15.6995 948.236C15.6995 951.87 16.0861 955.394 16.964 958.713L19.8642 957.945C19.0643 954.922 18.6995 951.661 18.6995 948.236H15.6995ZM14.9072 934.669C15.3072 939.234 15.6995 943.723 15.6995 948.236H18.6995C18.6995 943.57 18.2938 938.951 17.8958 934.407L14.9072 934.669ZM14.1031 920.832C14.1031 925.502 14.509 930.124 14.9072 934.669L17.8958 934.407C17.4957 929.84 17.1031 925.349 17.1031 920.832H14.1031ZM14.6722 909.915C14.3907 913.521 14.1031 917.194 14.1031 920.832H17.1031C17.1031 917.33 17.3799 913.775 17.6631 910.148L14.6722 909.915ZM15.1404 895.881C15.409 900.447 15.0464 905.121 14.6722 909.915L17.6631 910.148C18.0344 905.393 18.4179 900.511 18.1352 895.705L15.1404 895.881ZM14.9389 891.065C14.9922 892.662 15.0461 894.278 15.1404 895.881L18.1352 895.705C18.0435 894.146 17.9908 892.569 17.9372 890.965L14.9389 891.065ZM14.2376 881.143C14.7131 884.353 14.8254 887.667 14.9389 891.065L17.9372 890.965C17.8248 887.598 17.71 884.111 17.2052 880.703L14.2376 881.143ZM14.1033 880.242C14.1489 880.547 14.1938 880.848 14.2376 881.143L17.2052 880.704C17.1611 880.406 17.1159 880.104 17.0704 879.799L14.1033 880.242ZM13.0389 869.778C13.0389 873.141 13.6163 876.983 14.1033 880.242L17.0704 879.799C16.575 876.484 16.0389 872.875 16.0389 869.778H13.0389ZM13.8636 862.878C13.4678 865.048 13.0389 867.377 13.0389 869.778H16.0389C16.0389 867.694 16.411 865.631 16.8149 863.416L13.8636 862.878ZM14.6353 856.564C14.6353 858.625 14.2661 860.671 13.8636 862.878L16.8149 863.417C17.2091 861.255 17.6353 858.941 17.6353 856.564H14.6353ZM15.4395 840.59C15.0405 845.856 14.6353 851.197 14.6353 856.564H17.6353C17.6353 851.329 18.0305 846.102 18.4309 840.816L15.4395 840.59ZM16.2316 824.933C16.2316 830.122 15.8387 835.319 15.4395 840.59L18.4309 840.816C18.8287 835.564 19.2316 830.254 19.2316 824.933H16.2316ZM16.2538 821.808C16.2428 822.843 16.2316 823.888 16.2316 824.933H19.2316C19.2316 823.906 19.2426 822.878 19.2536 821.84L16.2538 821.808ZM15.2099 807.254C16.3511 811.946 16.3075 816.766 16.2538 821.808L19.2536 821.84C19.3066 816.861 19.3696 811.662 18.1249 806.545L15.2099 807.254ZM14.956 806.212C15.0413 806.562 15.126 806.91 15.2099 807.254L18.1249 806.545C18.0408 806.199 17.9559 805.851 17.8705 805.501L14.956 806.212ZM11.4436 786.262C11.687 792.834 13.4362 799.982 14.956 806.212L17.8705 805.501C16.334 799.202 14.6716 792.362 14.4415 786.151L11.4436 786.262ZM11.8654 783.629C11.5398 783.934 11.2128 784.256 10.9455 784.557C10.8118 784.707 10.676 784.872 10.5577 785.042C10.4509 785.195 10.3011 785.433 10.2094 785.722C10.1259 785.985 9.98916 786.635 10.4404 787.25C10.8687 787.834 11.4955 787.923 11.7516 787.94C12.2807 787.974 12.8851 787.807 13.4169 787.629L12.4682 784.783C12.2313 784.862 12.0662 784.907 11.9588 784.93C11.8346 784.956 11.8508 784.94 11.9487 784.946C12.001 784.949 12.4976 784.983 12.8589 785.475C13.2432 785.999 13.1029 786.522 13.0691 786.629C13.027 786.761 12.9801 786.813 13.0193 786.756C13.0471 786.717 13.1005 786.648 13.189 786.548C13.366 786.349 13.6156 786.101 13.9178 785.817L11.8654 783.629ZM11.4277 779.522C11.3372 781.153 11.1996 783.498 11.4069 784.937L14.3763 784.509C14.2224 783.441 14.3244 781.466 14.4231 779.688L11.4277 779.522ZM11.507 777.468C11.4983 777.42 11.5054 777.435 11.5075 777.572C11.5093 777.689 11.5071 777.845 11.5006 778.044C11.4875 778.441 11.4598 778.943 11.4277 779.522L14.4231 779.688C14.4545 779.121 14.4846 778.581 14.499 778.142C14.5113 777.766 14.522 777.28 14.4586 776.931L11.507 777.468ZM11.0279 772.397C11.1104 774.024 11.1961 775.758 11.507 777.468L14.4586 776.931C14.1883 775.444 14.1082 773.906 14.024 772.245L11.0279 772.397ZM10.5596 767.49C10.8567 769.065 10.9406 770.676 11.0279 772.397L14.024 772.245C13.9385 770.558 13.8488 768.742 13.5076 766.934L10.5596 767.49ZM9.79597 763.973C10.0735 765.174 10.3419 766.336 10.5596 767.49L13.5076 766.934C13.2766 765.71 12.9941 764.488 12.7189 763.297L9.79597 763.973ZM9.79482 763.968L9.79503 763.969L12.7199 763.302L12.7197 763.301L9.79482 763.968ZM8.47198 756.144C8.6071 758.846 9.22321 761.495 9.79577 763.972L12.7187 763.297C12.1354 760.773 11.5878 758.385 11.4682 755.994L8.47198 756.144ZM10.0251 740.761C8.44397 745.784 8.21867 751.078 8.47198 756.144L11.4682 755.994C11.2232 751.094 11.4574 746.202 12.8866 741.662L10.0251 740.761ZM11.4539 736.354C10.9591 737.859 10.4734 739.337 10.0251 740.761L12.8866 741.662C13.3283 740.259 13.808 738.8 14.3039 737.291L11.4539 736.354ZM16.6416 713.396C16.6416 720.522 13.9486 728.764 11.4539 736.354L14.3039 737.291C16.7555 729.832 19.6416 721.099 19.6416 713.396H16.6416ZM16.1565 713.2C16.3446 713.281 16.467 713.334 16.5717 713.389C16.6197 713.414 16.6533 713.434 16.6764 713.449C16.6877 713.456 16.6957 713.462 16.701 713.466C16.7036 713.468 16.7055 713.47 16.7067 713.471C16.708 713.472 16.7085 713.472 16.7085 713.472C16.7036 713.468 16.6745 713.438 16.6524 713.388C16.6312 713.34 16.6416 713.33 16.6416 713.396H19.6416C19.6416 712.487 19.2943 711.763 18.7151 711.242C18.2369 710.812 17.6399 710.572 17.3401 710.443L16.1565 713.2ZM13.7471 710.708C14.1256 712.411 15.5913 712.957 16.1565 713.2L17.34 710.443C17.1676 710.369 17.0444 710.316 16.9331 710.259C16.826 710.205 16.7636 710.165 16.7264 710.136C16.693 710.11 16.6873 710.099 16.6896 710.102C16.6933 710.108 16.6851 710.1 16.6757 710.058L13.7471 710.708ZM13.6154 706.935C13.5548 708.025 13.4653 709.44 13.7471 710.708L16.6757 710.058C16.5011 709.272 16.5442 708.299 16.6108 707.101L13.6154 706.935ZM13.6702 705.513C13.6702 705.942 13.6447 706.407 13.6154 706.935L16.6108 707.101C16.6391 706.592 16.6702 706.04 16.6702 705.513H13.6702ZM14.4591 685.79C13.9308 692.393 13.6702 698.872 13.6702 705.513H16.6702C16.6702 698.953 16.9276 692.554 17.4495 686.029L14.4591 685.79ZM14.9401 682.667C14.7527 683.648 14.5436 684.734 14.4591 685.79L17.4495 686.029C17.5186 685.166 17.6929 684.245 17.8868 683.23L14.9401 682.667ZM15.2549 678.068C15.4015 678.581 15.4327 679.224 15.3604 680.031C15.2881 680.839 15.124 681.705 14.9401 682.667L17.8868 683.23C18.0646 682.3 18.2604 681.282 18.3485 680.299C18.4367 679.314 18.4289 678.257 18.1394 677.244L15.2549 678.068ZM15.1254 675.318C15.0677 676.018 14.9653 677.054 15.2549 678.068L18.1394 677.244C18.0265 676.848 18.0483 676.378 18.1153 675.565L15.1254 675.318ZM15.0727 673.523C15.2171 673.941 15.198 674.438 15.1254 675.318L18.1153 675.565C18.1776 674.808 18.294 673.661 17.9089 672.544L15.0727 673.523ZM10.3952 667.243C12.4157 669.264 14.266 671.183 15.0727 673.522L17.9089 672.545C16.8401 669.445 14.4528 667.058 12.5165 665.122L10.3952 667.243ZM7.83231 654.736C6.95595 656.953 6.66359 659.177 7.08743 661.336C7.512 663.499 8.63287 665.481 10.3952 667.243L12.5165 665.122C11.1088 663.714 10.3241 662.25 10.0312 660.758C9.73767 659.263 9.91604 657.625 10.6222 655.839L7.83231 654.736ZM10.2835 645.911C9.58957 649.012 8.92281 651.977 7.83231 654.736L10.6222 655.839C11.8139 652.825 12.5265 649.626 13.2111 646.567L10.2835 645.911ZM14.1796 633.817C12.1272 637.629 11.1831 641.892 10.2835 645.911L13.2111 646.567C14.1276 642.471 14.9981 638.625 16.821 635.24L14.1796 633.817ZM15.8987 622.312C15.8987 624.074 15.8568 626.255 15.609 628.374C15.3576 630.523 14.9095 632.462 14.1796 633.817L16.821 635.24C17.8225 633.38 18.3236 630.989 18.5886 628.723C18.8571 626.427 18.8987 624.107 18.8987 622.312H15.8987ZM15.8987 601.223V622.312H18.8987V601.223H15.8987ZM15.51 597.946C15.7272 599.323 15.8987 600.439 15.8987 601.223H18.8987C18.8987 600.149 18.6758 598.762 18.4734 597.478L15.51 597.946ZM15.4385 590.571C14.981 591.658 14.9556 592.996 15.0318 594.186C15.1109 595.421 15.3231 596.759 15.51 597.946L18.4734 597.478C18.2814 596.261 18.0942 595.065 18.0257 593.995C17.9543 592.88 18.0329 592.14 18.2034 591.736L15.4385 590.571ZM14.5948 577.315C15.9315 582.298 17.0582 586.725 15.4385 590.571L18.2034 591.736C20.2965 586.764 18.7578 581.255 17.4923 576.538L14.5948 577.315ZM12.9273 568.125C12.9273 571.138 13.7937 574.329 14.5948 577.315L17.4923 576.538C16.6647 573.453 15.9273 570.666 15.9273 568.125H12.9273ZM14.1109 561.03C13.3847 563.621 12.9273 566.318 12.9273 568.125H15.9273C15.9273 566.698 16.3117 564.294 16.9996 561.84L14.1109 561.03ZM15.7613 552.86C15.1177 555.527 14.4158 558.428 14.0666 561.251L17.0439 561.619C17.3684 558.996 18.0261 556.263 18.6776 553.563L15.7613 552.86ZM17.1755 545.859C16.9608 547.878 16.3935 550.24 15.7613 552.86L18.6776 553.563C19.2959 551.001 19.9189 548.431 20.1587 546.176L17.1755 545.859ZM14.5078 527.943C16.3601 534.037 17.822 539.782 17.1755 545.859L20.1587 546.176C20.8749 539.444 19.2371 533.187 17.3782 527.071L14.5078 527.943ZM13.0263 524.947C13.6537 525.981 14.1778 526.857 14.5078 527.943L17.3782 527.071C16.9236 525.575 16.2023 524.398 15.5913 523.391L13.0263 524.947ZM10.9597 519.99C11.3051 522.133 12.2412 523.653 13.0263 524.947L15.5913 523.391C14.7962 522.08 14.1633 521.013 13.9215 519.513L10.9597 519.99ZM10.0387 492.519C9.77959 501.601 9.5074 510.98 10.9597 519.99L13.9215 519.513C12.5221 510.83 12.7768 501.74 13.0375 492.604L10.0387 492.519ZM10.2401 481.999C10.2401 485.455 10.1401 488.965 10.0387 492.519L13.0375 492.604C13.1387 489.058 13.2401 485.505 13.2401 481.999H10.2401ZM14.7777 448.747C12.5421 459.647 10.2401 470.845 10.2401 481.999H13.2401C13.2401 471.202 15.4694 460.306 17.7165 449.35L14.7777 448.747ZM17.2668 435.942C16.536 440.173 15.6616 444.437 14.7777 448.747L17.7165 449.35C18.5987 445.048 19.4829 440.737 20.223 436.453L17.2668 435.942ZM18.5438 430.797C18.0642 432.479 17.5618 434.235 17.2668 435.942L20.223 436.453C20.4857 434.932 20.9395 433.336 21.4288 431.62L18.5438 430.797ZM20.0498 422.244C20.2148 424.88 19.423 427.715 18.5438 430.797L21.4288 431.62C22.274 428.657 23.2471 425.303 23.0439 422.057L20.0498 422.244ZM18.9743 419.824C19.2926 420.376 19.557 420.838 19.7547 421.273C19.9523 421.708 20.0356 422.018 20.0498 422.244L23.0439 422.057C22.9974 421.313 22.7545 420.623 22.486 420.032C22.2176 419.442 21.8761 418.851 21.5743 418.327L18.9743 419.824ZM17.3358 415.836C17.5405 417.376 18.3789 418.789 18.9743 419.824L21.5743 418.327C20.9058 417.166 20.4215 416.282 20.3097 415.441L17.3358 415.836ZM14.716 403.323C15.7488 407.463 16.7647 411.541 17.3358 415.836L20.3097 415.441C19.7127 410.952 18.6538 406.714 17.6268 402.597L14.716 403.323ZM11.6411 384.178C11.6411 391.027 13.1984 397.241 14.716 403.323L17.6268 402.597C16.0978 396.469 14.6411 390.602 14.6411 384.178H11.6411ZM15.962 336.861C12.4591 351.68 11.6411 369.183 11.6411 384.178H14.6411C14.6411 369.243 15.4609 352.022 18.8816 337.551L15.962 336.861ZM16.4185 317.01C17.0141 323.858 17.5498 330.145 15.962 336.861L18.8816 337.551C20.5967 330.296 19.9978 323.54 19.4072 316.75L16.4185 317.01ZM15.8452 308.953C15.9587 311.727 16.1923 314.41 16.4185 317.01L19.4072 316.75C19.1802 314.14 18.953 311.525 18.8427 308.83L15.8452 308.953ZM15.7546 306.483C15.7825 307.29 15.8109 308.114 15.8452 308.953L18.8427 308.83C18.8089 308.003 18.7807 307.188 18.7528 306.379L15.7546 306.483ZM14.1872 292.907C15.4331 297.358 15.5869 301.624 15.7546 306.483L18.7528 306.379C18.5867 301.568 18.4338 296.948 17.0762 292.099L14.1872 292.907ZM13.7277 291.285C13.8878 291.847 14.0418 292.388 14.1872 292.907L17.0762 292.099C16.9286 291.571 16.7726 291.024 16.6129 290.463L13.7277 291.285ZM13.7228 291.268L13.7279 291.286L16.6127 290.463L16.6076 290.445L13.7228 291.268ZM13.7219 291.265L13.7234 291.27L16.607 290.443L16.6055 290.437L13.7219 291.265ZM13.7198 291.258L13.7207 291.261L16.6066 290.441L16.6057 290.438L13.7198 291.258ZM10.8712 274.053C10.5835 276.757 10.9517 279.808 11.5457 282.759C12.1423 285.724 12.991 288.7 13.7202 291.259L16.6053 290.437C15.8711 287.86 15.0561 284.997 14.4867 282.168C13.9146 279.325 13.6146 276.625 13.8544 274.37L10.8712 274.053ZM20.0603 281.924C19.3879 280.238 17.8539 277.238 16.4286 275.067C15.7523 274.036 14.9613 272.97 14.2015 272.419C13.9039 272.204 12.9977 271.618 11.9959 272.136C11.5157 272.384 11.2498 272.785 11.1074 273.106C10.9669 273.423 10.9028 273.756 10.8712 274.053L13.8544 274.37C13.8677 274.245 13.8822 274.249 13.8502 274.321C13.8164 274.398 13.689 274.638 13.3737 274.801C12.7014 275.148 12.2295 274.695 12.4408 274.848C12.6988 275.035 13.2239 275.651 13.9206 276.713C15.2411 278.725 16.6798 281.546 17.2739 283.035L20.0603 281.924ZM20.7589 283.663C20.533 283.105 20.3015 282.528 20.0603 281.924L17.2739 283.035C17.5163 283.643 17.7498 284.225 17.9782 284.789L20.7589 283.663ZM28.8508 263.069C24.6655 269.49 20.2586 276.232 17.9349 283.785L20.8022 284.667C22.9807 277.587 27.1352 271.195 31.364 264.707L28.8508 263.069ZM29.9396 261.396C29.5786 261.953 29.2155 262.51 28.8508 263.069L31.364 264.707C31.7284 264.148 32.0932 263.589 32.4562 263.029L29.9396 261.396ZM30.6503 260.345C30.415 260.686 30.1693 261.042 29.9396 261.396L32.4562 263.029C32.659 262.717 32.8802 262.396 33.1201 262.048L30.6503 260.345ZM30.6239 260.385L30.6234 260.385L33.147 262.007L33.1474 262.007L30.6239 260.385ZM32.6572 256.141C32.5938 257.452 31.7626 258.731 30.6507 260.344L33.1206 262.047C34.1094 260.613 35.5414 258.609 35.6537 256.286L32.6572 256.141ZM32.9877 248.196C32.8865 250.846 32.7854 253.49 32.6572 256.141L35.6537 256.286C35.7828 253.617 35.8844 250.958 35.9855 248.311L32.9877 248.196ZM32.9876 248.199L32.9876 248.2L35.9857 248.307L35.9857 248.306L32.9876 248.199ZM32.9886 248.177L32.9885 248.178L35.9848 248.327L35.9848 248.327L32.9886 248.177ZM34.0631 229.367C33.4654 235.688 33.2262 241.957 32.9878 248.195L35.9856 248.31C36.2245 242.058 36.4613 235.873 37.0498 229.65L34.0631 229.367ZM34.3758 226.974C34.2508 227.834 34.1296 228.664 34.0631 229.367L37.0498 229.65C37.1077 229.037 37.2159 228.29 37.3445 227.406L34.3758 226.974ZM29.8744 214.252C31.5756 214.34 32.6207 214.852 33.2993 215.505C33.9975 216.176 34.4584 217.143 34.7115 218.396C35.2319 220.972 34.7791 224.202 34.3758 226.974L37.3445 227.406C37.7283 224.768 38.2954 220.987 37.6521 217.802C37.3233 216.174 36.6566 214.572 35.379 213.343C34.0819 212.095 32.3033 211.374 30.0308 211.256L29.8744 214.252ZM11.4703 178.268C11.195 185.254 10.8385 193.894 12.9529 200.906C14.0207 204.447 15.7457 207.677 18.5147 210.087C21.3002 212.511 25.02 213.998 29.8744 214.252L30.0308 211.256C25.7341 211.031 22.6858 209.74 20.4842 207.824C18.2661 205.894 16.7849 203.222 15.8251 200.04C13.8844 193.604 14.1873 185.508 14.4679 178.386L11.4703 178.268ZM11.6411 172.074C11.6411 173.926 11.5592 176.01 11.4703 178.268L14.4679 178.386C14.5563 176.144 14.6411 173.996 14.6411 172.074H11.6411ZM13.754 144.954C12.7046 153.895 11.6411 162.94 11.6411 172.074H14.6411C14.6411 163.145 15.6807 154.274 16.7335 145.304L13.754 144.954ZM15.844 118.225C15.844 127.134 14.806 135.992 13.754 144.954L16.7335 145.304C17.7821 136.371 18.844 127.339 18.844 118.225H15.844ZM9.07496 101.73C11.5456 104.923 13.2067 107.21 14.2787 109.613C15.3284 111.967 15.844 114.511 15.844 118.225H18.844C18.844 114.2 18.2795 111.219 17.0186 108.391C15.78 105.614 13.8997 103.064 11.4477 99.8943L9.07496 101.73ZM5.81219 53.193C2.7088 61.9449 0.442017 70.1174 0.501131 78.085C0.560713 86.1156 2.98062 93.8527 9.07496 101.73L11.4477 99.8943C5.74493 92.5231 3.55563 85.4197 3.50105 78.0627C3.446 70.6426 5.56008 62.8805 8.63969 54.1956L5.81219 53.193ZM6.14762 52.2231C6.01436 52.612 5.9032 52.9363 5.81219 53.193L8.63969 54.1956C8.73723 53.9205 8.85423 53.579 8.98562 53.1956L6.14762 52.2231ZM14.9313 37.5396C13.5927 37.8991 12.5134 38.9715 11.6798 40.0699C10.8093 41.2167 10.0168 42.6489 9.31915 44.1116C7.92156 47.0418 6.79778 50.3258 6.14762 52.2231L8.98562 53.1956C9.64216 51.2796 10.7146 48.1545 12.0269 45.4031C12.6842 44.025 13.3751 42.7984 14.0694 41.8837C14.8005 40.9205 15.3674 40.5287 15.7095 40.4369L14.9313 37.5396ZM21.6669 40.7677C21.1094 39.9732 20.3653 38.8819 19.3129 38.1594C18.1373 37.3525 16.6972 37.0652 14.9313 37.5396L15.7095 40.4369C16.6913 40.1732 17.2156 40.3586 17.615 40.6327C18.1374 40.9914 18.5788 41.5896 19.211 42.4908L21.6669 40.7677ZM22.1931 41.5023C22.0208 41.272 21.8514 41.0308 21.6669 40.7677L19.211 42.4908C19.391 42.7473 19.5867 43.0264 19.7911 43.2996L22.1931 41.5023Z" fill="black"/>
</svg>
