<svg width="204" height="20" viewBox="0 0 204 20" fill="none" xmlns="http://www.w3.org/2000/svg">
<path d="M33.3198 1.26594V4.00272H34.3246V4.62119H41.5035V4.01781C41.6139 4.0135 41.706 4.00919 41.7969 4.00703C41.8814 4.00488 41.9659 4.00703 42.0795 4.00703V1.81222H45.342V3.99949H45.9083V4.61796H51.2269V3.645H51.8073V1.43187H52.9431V0.554802C53.151 0.493386 54.8727 0.479379 55.2051 0.531097V3.25172H54.0866V4.1665H53.5278V4.63089C53.7466 4.63305 53.9761 4.6352 54.2067 4.63628C54.4406 4.63628 54.6745 4.63628 54.9084 4.63628C55.1423 4.63628 55.374 4.63628 55.6003 4.63628C55.6577 4.83777 55.6772 6.92484 55.6274 7.38707C55.3415 7.38923 55.0502 7.39246 54.759 7.39462C54.4558 7.39569 54.1526 7.39462 53.8494 7.39462H52.954V8.29107C53.1748 8.32017 53.4055 8.30185 53.635 8.30508C53.8689 8.30831 54.1028 8.30508 54.3367 8.30508C54.5706 8.30508 54.8023 8.30508 55.0286 8.30508C55.087 8.50657 55.099 10.3792 55.0448 10.7154C54.9582 10.7154 54.8662 10.7154 54.7741 10.7154C54.1158 10.7154 53.4575 10.7326 52.7991 10.7089C52.4602 10.6971 52.1462 10.8016 51.7954 10.8285V13.0029H50.9313V15.2139H50.3672V17.4302C49.8788 17.4399 49.4154 17.4302 48.9206 17.4367V19.625H46.6673V17.8149H45.6701V13.4091C45.4687 13.3962 45.2933 13.3854 45.0962 13.3735V11.1959C44.9002 11.1873 44.7248 11.1798 44.5321 11.1712C44.5234 11.0236 44.5158 10.8899 44.5072 10.7283C43.8391 10.7025 43.1786 10.724 42.5051 10.7154C42.4953 10.877 42.4878 11.0117 42.478 11.1658C42.3437 11.1755 42.2181 11.1841 42.0601 11.1949V13.3854H41.209V15.5802H40.6286V17.7966H39.1863V20H36.9363V17.8127H35.6446V15.7849H34.9267V13.575H34.0767V11.5526H32.9333V10.7165H31.2874V7.97322H32.0367V7.4H30V4.63951H31.0535V1.26594H33.3209H33.3198ZM49.8117 16.8861C49.8301 16.1286 49.8052 15.411 49.8269 14.6913C50.0315 14.6827 50.2015 14.6751 50.391 14.6665C50.391 14.2808 50.391 13.9209 50.391 13.5599C50.391 13.2022 50.3943 12.8445 50.3964 12.4609H51.2497V10.2715C51.3958 10.2618 51.542 10.2941 51.6308 10.2381C51.7553 10.1583 51.8744 10.168 52 10.168C52.745 10.1659 53.4899 10.167 54.2349 10.167C54.3269 10.167 54.4179 10.167 54.5164 10.167V8.85029H52.4017V6.84726H55.086V5.1804H52.9724V3.63961H53.5322V2.70975H54.6539V1.06984H53.5018V1.97384H52.3725C52.3595 2.71945 52.3768 3.43705 52.3617 4.16004C52.1581 4.16865 51.9881 4.1762 51.7856 4.18482V5.17071H45.3669V4.56732C45.1612 4.55547 44.9847 4.54577 44.7887 4.535V2.36173H42.6296C42.6296 2.61817 42.6296 2.85737 42.6296 3.09764C42.6296 3.33792 42.635 3.58035 42.6285 3.82063C42.6209 4.0566 42.661 4.29687 42.5971 4.54038C42.4163 4.549 42.2474 4.55762 42.0731 4.56624C42.0611 4.78497 42.0514 4.97784 42.0406 5.16316C41.4873 5.22458 33.9706 5.19872 33.7692 5.13084V4.54685H32.786C32.7708 3.60837 32.7936 2.70006 32.773 1.7842C32.3594 1.78743 31.9826 1.7745 31.5949 1.79174C31.5949 2.10206 31.5949 2.37681 31.5949 2.65265V3.50493C31.5949 3.78076 31.596 4.05552 31.5949 4.33135C31.5939 4.6115 31.6014 4.89164 31.5884 5.19764H30.5566C30.5111 5.68682 30.5284 6.65762 30.588 6.85696H32.6019V7.87733H33.4465V8.50334H31.8342V10.168H33.4692V10.9934H34.6202V13.0341H35.4789V15.2365H36.1849C36.1849 15.5964 36.1849 15.9218 36.1849 16.2482C36.1849 16.5801 36.1892 16.913 36.1914 17.2675H37.4701V19.4397C37.8285 19.4882 38.4501 19.4753 38.6525 19.4139V17.2611H40.071V15.0479H40.6611V12.8402H41.5133V10.6464C41.6659 10.6357 41.7904 10.626 41.9258 10.6163C41.9345 10.46 41.942 10.3189 41.9496 10.1853H45.042C45.0518 10.3383 45.0605 10.473 45.0713 10.6324H45.6235V12.8305C45.8271 12.8391 46.0036 12.8477 46.2017 12.8563V17.2632H47.2087V19.0777H48.3814V16.8861H49.8128H49.8117Z" fill="#EE5959"/>
<path d="M49.8106 16.885H48.3792V19.0766H47.2065V17.2621H46.1996V12.8553C46.0014 12.8467 45.8249 12.8391 45.6213 12.8294V10.6314H45.0691C45.0583 10.4719 45.0496 10.3372 45.0399 10.1842H41.9475C41.9399 10.3178 41.9323 10.459 41.9236 10.6152C41.7883 10.6249 41.6638 10.6346 41.5111 10.6454V12.8391H40.6589V15.0469H40.0688V17.26H38.6504V19.4128C38.4479 19.4742 37.8264 19.4871 37.468 19.4386V17.2665H36.1892C36.187 16.9109 36.1838 16.579 36.1827 16.2472C36.1827 15.9207 36.1827 15.5953 36.1827 15.2354H35.4767V13.0331H34.6181V10.9923H33.4671V10.167H31.8321V8.50227H33.4443V7.87626H32.5998V6.85589H30.5858C30.5252 6.65656 30.5089 5.68575 30.5544 5.19658H31.5863C31.6004 4.89057 31.5917 4.61043 31.5928 4.33029C31.5939 4.05445 31.5928 3.7797 31.5928 3.50386V2.65158C31.5928 2.37683 31.5928 2.10207 31.5928 1.79068C31.9815 1.77344 32.3572 1.78637 32.7709 1.78314C32.7925 2.69899 32.7687 3.60622 32.7838 4.54578H33.767V5.12978C33.9684 5.19766 41.4851 5.22352 42.0384 5.1621C42.0482 4.9757 42.059 4.78391 42.0709 4.56518C42.2463 4.55656 42.4141 4.54794 42.595 4.53932C42.6588 4.29581 42.6188 4.05553 42.6264 3.81957C42.6339 3.57821 42.6274 3.33793 42.6274 3.09658C42.6274 2.85522 42.6274 2.61603 42.6274 2.36066H44.7865V4.53393C44.9825 4.54471 45.159 4.5544 45.3647 4.56626V5.16964H51.7835V4.18375C51.9849 4.17513 52.1549 4.16759 52.3595 4.15897C52.3747 3.43598 52.3563 2.71839 52.3703 1.97277H53.4997V1.06985H54.6518V2.70653H53.53V3.63639H52.9702V5.17718H55.0838V6.84404H52.3996V8.84706H54.5143V10.1637C54.4168 10.1637 54.3248 10.1637 54.2327 10.1637C53.4878 10.1637 52.7428 10.1627 51.9979 10.1648C51.8733 10.1648 51.7542 10.1551 51.6286 10.2349C51.5398 10.2909 51.3948 10.2596 51.2475 10.2683V12.4577H50.3943C50.3921 12.8413 50.3899 13.199 50.3888 13.5567C50.3888 13.9177 50.3888 14.2775 50.3888 14.6633C50.2004 14.6719 50.0304 14.6794 49.8247 14.6881C49.8031 15.4078 49.829 16.1254 49.8096 16.8829L49.8106 16.885ZM38.9135 16.6426V15.5878H39.4776V13.38H40.3319V11.5235C40.4857 11.5117 40.6102 11.502 40.738 11.4912V10.1961C40.4348 10.1422 34.8411 10.154 34.6441 10.2101V11.3597H35.7918V13.5696H36.6418V15.5974H37.3413C37.3738 15.9638 37.3305 16.3064 37.3684 16.6415H38.9135V16.6426ZM33.7898 8.20381H34.6506V8.83952H41.4678V6.87959C41.1765 6.82572 33.9738 6.83865 33.7908 6.89145V8.20489L33.7898 8.20381ZM46.8048 11.5074V13.3746C46.9986 13.3843 47.1751 13.3919 47.3776 13.4016V15.9153C47.8075 15.9185 48.2103 15.9228 48.6347 15.9142V15.216H49.2151V12.9997H50.0662C50.0932 12.2497 50.0553 11.5321 50.0878 10.8167C50.2383 10.8059 50.3574 10.7973 50.483 10.7876V10.1831H46.2439V11.5074H46.8048ZM51.2204 8.83844C51.2183 8.18549 51.2269 7.53039 51.2139 6.86128H45.8152V8.83844H51.2204ZM44.61 8.84275V6.86235H42.6837C42.6274 7.20607 42.6426 8.6682 42.7032 8.84275H44.61Z" fill="#EE5959"/>
<path d="M38.9135 16.6426L37.3686 16.6426C37.3296 16.3064 37.3729 15.9649 37.3415 15.5985H36.642V13.5707H35.792V11.3608H34.6443V10.2112C34.8414 10.1551 40.435 10.1433 40.7382 10.1971V11.4923C40.6115 11.502 40.4859 11.5127 40.3322 11.5246V13.3811H39.4778V15.5888H38.9137V16.6437L38.9135 16.6426ZM40.212 10.7154C40.0658 10.7154 39.9543 10.7154 39.8438 10.7154C38.3041 10.7208 36.7655 10.7251 35.2257 10.7305C35.2182 10.7305 35.2073 10.737 35.2041 10.7434C35.2008 10.7499 35.2041 10.7596 35.2073 10.8059C35.3817 10.8318 35.5668 10.8145 35.7498 10.8188C35.936 10.8232 36.1223 10.8253 36.328 10.8296V13.0288H37.1932V15.0663H37.8818C37.923 15.4272 37.8656 15.7623 37.9186 16.0942H38.3561V15.0458H38.9256V12.8359H39.794V10.9859C39.9413 10.9772 40.0604 10.9708 40.1925 10.9632C40.1979 10.8846 40.2033 10.8199 40.2109 10.7165L40.212 10.7154Z" fill="#EE5959"/>
<path d="M33.7898 8.20381L33.7899 6.89034C33.974 6.83754 41.1756 6.82569 41.4668 6.87849V8.83842H34.6496V8.2027H33.7888L33.7898 8.20381ZM35.1921 8.28675H40.9384C40.9384 8.04647 40.9384 7.82451 40.9384 7.60255C40.9384 7.54437 40.9309 7.48618 40.9265 7.43231C40.6309 7.36766 34.4114 7.3752 34.327 7.45063C34.3345 7.51097 34.3443 7.58316 34.3562 7.67043H35.1921V8.28675Z" fill="#EE5959"/>
<path d="M46.2461 11.5084V10.1842H50.4852V10.7887C50.3596 10.7984 50.2405 10.807 50.09 10.8177C50.0575 11.5332 50.0954 12.2508 50.0683 13.0007H49.2173V15.2171H48.6369V15.9153C48.2113 15.9239 47.8096 15.9196 47.3798 15.9164V13.4026C47.1773 13.3929 47.0008 13.3843 46.807 13.3757V11.5084H46.2461ZM49.5085 10.7305H46.7723C46.7777 10.8167 46.7821 10.8867 46.7886 10.9804H47.3451V12.8456H47.9114V15.3668C47.9818 15.3636 48.0229 15.3615 48.0977 15.3582V14.6934C48.3088 14.6816 48.4853 14.6719 48.6824 14.6622V12.4717H49.5085V10.7305Z" fill="#EE5959"/>
<path d="M51.2204 8.83953H45.8152V6.86236H51.214C51.2269 7.53148 51.2183 8.18658 51.2204 8.83953ZM50.6552 7.41511C50.1323 7.35908 46.5461 7.38279 46.3609 7.44205V8.28894H50.6552V7.41511Z" fill="#EE5959"/>
<path d="M44.61 8.8438H42.7032C42.6426 8.66817 42.6274 7.20712 42.6837 6.8634H44.61V8.8438ZM44.0697 7.39998C43.7676 7.40214 43.4893 7.36874 43.2186 7.41938V8.29213H44.0697V7.39998Z" fill="#EE5959"/>
<path d="M22 10.4865H28V8.98841H23.5V7.49034H22V5.99227H20.5V1.49807H17.5V5.99227H16V7.49034H14.5V8.98841H10V10.4865H16V8.98841H17.5V7.49034H20.5V8.98841H22V10.4865ZM20.5 11.9845H17.5V16.4787H8.5V17.9768H29.5V16.4787H20.5V11.9845Z" fill="black"/>
<path d="M58.792 5.99227H61.792V7.49034H73.792V5.99227H76.792V1.49807H73.792V0H61.792V1.49807H58.792V5.99227ZM63.292 1.49807H72.292V2.99614H73.792V4.4942H72.292V5.99227H63.292V4.4942H61.792V2.99614H63.292V1.49807ZM78.292 8.98841H57.292V10.4865H78.292V8.98841ZM58.792 17.9768H60.292V19.4749H76.792V17.9768H61.792V16.4787H76.792V11.9845H58.792V13.4826H73.792V14.9807H58.792V17.9768Z" fill="black"/>
<path d="M105.82 0H93.82V8.98841H95.32V10.4865H104.32V8.98841H105.82V0ZM111.82 0H108.82V10.4865H111.82V5.99227H116.32V4.4942H111.82V0ZM102.82 8.98841H96.82V1.49807H102.82V8.98841ZM95.32 17.9768H96.82V19.4749H111.82V17.9768H98.32V16.4787H111.82V11.9845H95.32V13.4826H108.82V14.9807H95.32V17.9768Z" fill="black"/>
<path d="M125.584 5.49292H117.584V11.4852H118.584V12.4839H124.584V11.4852H125.584V5.49292ZM129.584 5.49292H127.584V12.4839H129.584V9.48776H132.584V8.48905H129.584V5.49292ZM123.584 11.4852H119.584V6.49163H123.584V11.4852ZM120.584 13.4826H118.584V17.4775H119.584V18.4762H129.584V17.4775H120.584V13.4826Z" fill="black"/>
<path d="M154.024 0H151.024V1.49807H146.524V2.99614H158.524V1.49807H154.024V0ZM163.024 10.4865H164.524V19.4749H167.524V0H164.524V8.98841H163.024V0H160.024V19.4749H163.024V10.4865ZM155.524 16.4787H157.024V14.9807H158.524V7.49034H157.024V5.99227H155.524V4.4942H149.524V5.99227H148.024V7.49034H146.524V14.9807H148.024V16.4787H149.524V17.9768H155.524V16.4787ZM151.024 5.99227H154.024V7.49034H155.524V14.9807H154.024V16.4787H151.024V14.9807H149.524V7.49034H151.024V5.99227Z" fill="black"/>
<path d="M170.788 16.4787V17.9768H185.788V19.4749H188.788V10.4865H193.288V8.98841H188.788V0H185.788V16.4787H178.288V11.9845H181.288V10.4865H182.788V1.49807H179.788V5.99227H173.788V1.49807H170.788V10.4865H172.288V11.9845H175.288V16.4787H170.788ZM173.788 10.4865V7.49034H179.788V10.4865H173.788Z" fill="black"/>
<path d="M6 5.44949H4.04348V3.49549H1.95652V5.44949H0V7.53376H1.95652V9.48776H4.04348V7.53376H6V5.44949Z" fill="#F9D501"/>
<path d="M204 11.4418H202.043V9.48776H199.957V11.4418H198V13.526H199.957V15.48H202.043V13.526H204V11.4418Z" fill="#F9D501"/>
<path d="M89 10.4431H87.0435V8.48905H84.9565V10.4431H83V12.5273H84.9565V14.4813H87.0435V12.5273H89V10.4431Z" fill="#F9D501"/>
<path d="M142 6.4482H140.043V4.4942H137.957V6.4482H136V8.53247H137.957V10.4865H140.043V8.53247H142V6.4482Z" fill="#F9D501"/>
</svg>
