<svg width="140" height="165" viewBox="0 0 140 165" fill="none" xmlns="http://www.w3.org/2000/svg">
<path d="M14.2294 23.8178C15.1173 19.8156 14.8722 16.0995 16.6486 12.3184C16.6486 8.73655 16.5987 3.86184 21.399 3.59471C23.5449 3.47529 25.3986 2.09174 27.557 2.00859C30.2906 1.90327 33.1054 2.80165 35.9582 2.80165C52.3698 2.80165 68.549 5.97389 85.002 5.97389H99.7811C103.045 5.97389 106.014 5.00856 109.282 5.18083C113.778 5.41787 118.489 6.76695 123.137 6.76695C126.864 6.76695 131.677 6.24554 134.442 9.32237C135.222 10.1906 134.618 13.9028 134.618 15.05C134.618 19.5444 133.826 23.9838 133.826 28.5321C133.826 39.4818 133.034 50.8027 133.034 61.4882C133.034 67.3924 129.823 72.4873 132.242 78.7593C133.802 82.8027 137.387 86.1479 137.828 90.1265C138.422 95.4743 137.374 99.6192 136.245 104.71C135.109 109.831 135.908 115.833 134.442 120.792C132.872 126.097 133.826 132.469 133.826 138.019V152.69C133.826 166.009 117.96 155.108 113.241 161.017C111.923 162.667 107.596 162.068 105.675 162.251L105.415 162.276C101.478 162.652 97.8276 163 93.799 163H78.932C75.4638 163 72.2055 161.588 68.9033 161.414C62.5749 161.08 56.683 161.414 50.5174 161.414C47.3533 161.414 44.18 161.484 41.0165 161.414C36.5339 161.314 31.2112 159.232 26.8532 160.224C23.1775 161.061 20.3204 160.271 16.7366 159.872L16.6714 159.865C15.0749 159.687 11.4121 159.28 10.3147 158.242C7.99436 156.047 10.2548 151.548 6.70788 149.518C3.14667 147.48 0.651264 140.294 2.79317 136.432C5.47612 131.595 5.32229 124.135 6.97179 118.765C10.7258 106.544 9.73073 93.4159 10.3587 80.5216C10.6378 74.7908 12.6899 69.1254 12.6899 63.4708C12.6899 61.2161 11.8982 59.4241 11.8982 57.1704C11.8982 50.888 12.6899 44.8311 12.6899 38.4894C12.6899 33.2666 13.1292 28.7769 14.2294 23.8178Z" fill="white" stroke="#EE5959" stroke-width="3" stroke-linecap="round"/>
</svg>
